<svg xmlns="http://www.w3.org/2000/svg" xmlns:xlink="http://www.w3.org/1999/xlink" version="1.1" id="Layer_1" x="0px" y="0px" viewBox="-3 -3 3637 798" style="enable-background:new 0 0 3631.7 792.2;" xml:space="preserve"><g id="deeditor_bgCarrier" stroke-width="0">
  <rect id="dee_c_e" x="-3" y="-3" width="3637" height="798" rx="38.4" fill="#ffffff" strokewidth="0"/>
</g>
<style type="text/css">
	.st0{fill:#F6921E;}
	.st1{fill:#FFFFFF;}
	.st2{fill:#EF8D21;}
</style>
<g>
	<g>
		<g>
			<path class="st0" d="M165.8,93.6c0,0-78.9,38.9-76.7,60.6c43.8,422.2,291.8,253.6,291.8,253.6l30.6-23.3     c0,0,228.6-194.2-166.8-348.7C224.3,27.8,165.8,93.6,165.8,93.6z" fill="#000000"/>
			<path class="st1" d="M166.4,94.7c0,0-17.2,8.2-44.5,26.7c-6.7,4.8-14.1,10.2-20.9,17.1c-3.2,3.5-6.8,7.3-8.3,11.6     c-1.4,3.4,0.5,9.5,1.2,15.1c1.8,11.4,3.8,23.6,5.9,36.4c2,12.8,3.9,26.4,8,39.8c3.6,13.6,7.3,27.8,11.1,42.4     c5.5,14.1,11.2,28.6,17.1,43.6c6.9,14.3,15.5,28.4,24.1,42.5c10.8,12.4,20.5,26.6,34.8,35.9c26.5,21,62.1,29.9,97.2,24.9     c17.6-2.1,35-7.4,51.6-14.6c8.4-3.5,16.5-7.7,24.3-12.2l5.7-3.5c1.8-1.1,2.8-2.1,5-3.8l11.2-8.8l11.2-8.8l2.8-2.2     c0.2-0.2,1.5-1.2,0.8-0.6l1.3-1.2l4.7-4.7c6.1-6.3,12.1-13.3,17.4-20.5c10.9-14.3,20-29.9,26.1-46.1     c12.7-32.4,12.7-67.4-0.6-96.9c-5-15.5-15.9-28.1-24.7-41.4c-11.2-11.7-22.2-23.3-33.8-33.7c-12.6-9.6-24.8-18.9-36.7-27.9     c-13-7.6-25.5-15-37.5-22.1c-24-14.5-48.1-24.2-68.5-34.7l-7.6-3.7l-1.9-0.9c0.3,0-1.9-0.7,0.4-0.1l-1-0.2     c-1.1-0.1-3.2-0.9-3.5-0.5c-1.2,0-7.3,2.1-10.9,4.1c-8.3,4.3-15.7,9.6-22.2,14.5l-39.3,34.2L166.4,94.7z M165,92.5     c0.9-1.2,11.9-16.4,35.1-38.9c6.2-5.8,13-12.2,22-18.1c2.4-1.3,4.6-2.9,7.5-4l4.3-1.8c2-0.5,4.2-0.8,6.3-1c2.3-0.3,3,0.2,4.5,0.3     l1,0.1c2.9,0.8,1.4,0.5,2.3,0.7l2,0.8c2.6,1,5.3,2.1,8,3.1c10.9,4.3,22.4,8.8,34.6,13.6c12.2,4.8,25.2,9.5,37.8,16.8     c12.8,6.8,26.2,13.9,40,21.2c13,9,26.4,18.3,40.3,27.8c13.2,10.5,25.7,23.1,38.1,36.1c10.5,15,22.8,29.2,29.4,47.8     c15.4,35.6,14.5,79.5-1.7,116c-7.7,18.5-18.4,35.3-30.8,50.7c-6.2,7.8-12.8,15-20.1,22.1L420,391l-1.3,1.2l-2,1.6l-2.9,2.1     l-11.5,8.4l-11.4,8.5c-1.6,1.1-4.1,3.2-6.5,4.6l-6.6,3.8c-8.7,4.8-17.6,9-26.8,12.6c-18.2,7.3-37.3,12.6-56.9,14.5     c-39,4.6-79.6-6.6-108.3-30.7c-15.5-10.9-25.6-26.2-36.8-39.9c-8.8-15.1-17.4-30.2-24-45.3c-5.5-15.6-10.9-30.8-16.1-45.4     c-3.4-15.1-6.8-29.8-10-43.8c-3.7-14-5.1-27.5-6.7-40.4c-1.6-12.9-3.2-25.1-4.7-36.5c-0.3-5.8-2.6-10.9-0.4-18     c2.3-6,6.4-9.7,10-13.4c7.5-7.1,15.2-12.3,22.2-16.9C146.3,100.9,163.3,93.3,165,92.5z" fill="#000000"/>
		</g>
		<g>
			<path class="st0" d="M626.5,698.7c0,0,78.9-38.9,76.7-60.6c-43.7-422.3-291.7-253.6-291.7-253.6l-30.6,23.3     c0,0-228.6,194.2,166.8,348.7C568,764.4,626.5,698.7,626.5,698.7z" fill="#000000"/>
			<path class="st1" d="M626,697.5c0,0,17.2-8.2,44.5-26.7c6.7-4.8,14.1-10.2,20.9-17.1c3.2-3.5,6.8-7.3,8.3-11.6     c1.4-3.4-0.5-9.5-1.2-15.1c-1.8-11.4-3.8-23.6-5.9-36.4c-2-12.8-3.9-26.4-8-39.8c-3.6-13.6-7.3-27.8-11.1-42.4     c-5.5-14.1-11.2-28.6-17.1-43.6c-6.9-14.3-15.5-28.4-24.1-42.5c-10.8-12.4-20.5-26.6-34.8-35.9c-26.5-21-62.1-29.8-97.2-24.9     c-17.6,2.1-35,7.4-51.6,14.6c-8.4,3.5-16.5,7.7-24.3,12.2l-5.7,3.5c-1.8,1.1-2.8,2.1-5,3.8l-11.2,8.8l-11.2,8.8l-2.8,2.2     c-0.2,0.2-1.5,1.2-0.8,0.6l-1.3,1.2l-4.7,4.7c-6.1,6.3-12.1,13.3-17.4,20.5c-10.9,14.3-20,29.9-26.1,46.1     c-12.7,32.4-12.7,67.4,0.6,96.9c5,15.5,15.9,28.1,24.7,41.4c11.2,11.7,22.2,23.3,33.8,33.7c12.6,9.6,24.8,18.9,36.7,27.9     c13,7.6,25.5,15,37.5,22.1c24,14.5,48.1,24.2,68.5,34.7l7.6,3.7l1.9,0.9c-0.3,0,1.9,0.7-0.4,0.1l1,0.2c1.1,0.1,3.2,0.9,3.5,0.4     c1.2,0,7.4-2.1,10.9-4.1c8.3-4.3,15.7-9.6,22.2-14.5l39.3-34.2L626,697.5z M627.3,699.7c-0.9,1.2-11.9,16.4-35.1,38.9     c-6.2,5.8-13,12.2-22,18.1c-2.4,1.3-4.6,2.9-7.5,4l-4.3,1.8c-2,0.5-4.2,0.8-6.3,1c-2.3,0.3-3-0.2-4.6-0.3l-1-0.1     c-2.9-0.8-1.4-0.5-2.3-0.7l-2-0.8c-2.6-1-5.3-2.1-8-3.1c-10.9-4.3-22.4-8.8-34.6-13.6c-12.2-4.8-25.2-9.5-37.8-16.8     c-12.8-6.8-26.2-13.9-40-21.2c-13-9-26.4-18.3-40.3-27.8c-13.2-10.5-25.7-23.1-38.1-36.1c-10.5-15-22.8-29.2-29.4-47.8     c-15.4-35.6-14.5-79.5,1.7-116c7.7-18.5,18.4-35.3,30.8-50.7c6.2-7.8,12.8-15,20.1-22.1l5.6-5.2l1.3-1.2l2-1.6l2.9-2.1l11.5-8.4     l11.4-8.5c1.6-1.1,4.1-3.2,6.5-4.6l6.6-3.8c8.7-4.8,17.6-9,26.8-12.6c18.2-7.3,37.3-12.6,56.9-14.5c39-4.6,79.6,6.6,108.3,30.6     c15.5,10.9,25.6,26.2,36.8,39.9c8.8,15.1,17.4,30.2,24,45.3c5.5,15.6,10.9,30.7,16.1,45.4c3.4,15.1,6.8,29.8,10,43.8     c3.7,14,5.1,27.5,6.7,40.4s3.2,25.1,4.7,36.5c0.3,5.8,2.6,10.9,0.4,18c-2.3,6-6.4,9.7-10,13.4c-7.5,7.1-15.2,12.3-22.2,16.9     C646.1,691.3,629.1,698.9,627.3,699.7z" fill="#000000"/>
		</g>
		<g>
			<path class="st0" d="M698.7,165.8c0,0-38.9-78.9-60.6-76.7c-422.3,43.7-253.6,291.7-253.6,291.7l23.3,30.6     c0,0,194.2,228.6,348.7-166.8C764.5,224.3,698.7,165.8,698.7,165.8z" fill="#000000"/>
			<path class="st1" d="M697.6,166.3c0,0-8.2-17.2-26.7-44.5c-4.8-6.7-10.2-14.1-17.1-20.9c-3.5-3.2-7.3-6.8-11.6-8.3     c-3.4-1.4-9.5,0.5-15.1,1.2c-11.4,1.8-23.6,3.8-36.4,5.9c-12.8,2-26.4,3.9-39.8,8c-13.6,3.6-27.8,7.3-42.4,11.1     c-14.1,5.5-28.6,11.2-43.6,17.1c-14.3,6.9-28.4,15.5-42.5,24.1c-12.4,10.8-26.6,20.5-35.9,34.8c-21,26.5-29.8,62.1-24.9,97.2     c2.1,17.6,7.4,35,14.6,51.6c3.5,8.4,7.7,16.5,12.2,24.3l3.5,5.7c1.1,1.8,2.1,2.8,3.8,5.1l8.7,11.2l8.8,11.2l2.2,2.8     c0.2,0.2,1.2,1.6,0.6,0.8l1.2,1.3l4.7,4.7c6.3,6.1,13.3,12.1,20.5,17.4c14.3,10.9,29.9,20,46.1,26.1     c32.4,12.7,67.4,12.7,96.9-0.6c15.5-5,28.1-15.9,41.4-24.7c11.7-11.2,23.3-22.2,33.7-33.8c9.6-12.6,18.9-24.8,27.9-36.7     c7.6-13,15-25.5,22.1-37.5c14.5-24,24.2-48.1,34.7-68.5l3.7-7.6l0.9-1.9c0,0.3,0.7-1.9,0.1,0.4l0.2-1c0.1-1.1,0.9-3.2,0.4-3.5     c0-1.2-2.1-7.4-4.1-10.9c-4.3-8.3-9.6-15.7-14.5-22.2L697.6,166.3L697.6,166.3z M699.7,164.9c1.2,0.9,16.4,11.9,38.9,35.1     c5.8,6.2,12.2,13,18.1,22c1.3,2.4,2.9,4.6,4,7.5l1.8,4.3c0.5,2,0.8,4.2,1,6.3c0.3,2.3-0.2,3-0.3,4.6l-0.1,1     c-0.8,2.9-0.5,1.4-0.7,2.3l-0.8,2c-1,2.6-2.1,5.3-3.1,8c-4.3,10.9-8.8,22.4-13.6,34.6c-4.8,12.2-9.5,25.2-16.8,37.8     c-6.8,12.8-13.9,26.2-21.2,40c-9,13-18.3,26.4-27.8,40.3c-10.5,13.2-23.1,25.7-36.1,38.1c-15,10.5-29.2,22.8-47.8,29.4     c-35.6,15.4-79.5,14.5-116-1.7c-18.5-7.7-35.4-18.4-50.7-30.8c-7.8-6.2-15-12.8-22.1-20.1l-5.2-5.6l-1.2-1.3l-1.6-2l-2.1-2.9     l-8.4-11.5l-8.5-11.4c-1.1-1.6-3.2-4.1-4.5-6.5l-3.8-6.6c-4.8-8.7-9-17.6-12.6-26.8c-7.3-18.2-12.6-37.3-14.5-56.9     c-4.6-39,6.6-79.6,30.6-108.3c10.9-15.5,26.2-25.6,39.9-36.8c15.1-8.8,30.2-17.4,45.3-24c15.6-5.5,30.8-10.9,45.4-16.1     c15.1-3.4,29.8-6.8,43.8-10c14-3.7,27.5-5.1,40.4-6.7s25.1-3.2,36.5-4.7c5.8-0.3,10.9-2.6,18-0.4c6,2.3,9.7,6.4,13.4,10     c7.1,7.5,12.3,15.2,16.9,22.2C691.3,146.2,699,163.2,699.7,164.9z" fill="#000000"/>
		</g>
		<g>
			<path class="st0" d="M93.6,626.4c0,0,38.9,78.9,60.6,76.7c422.3-43.7,253.6-291.7,253.6-291.7l-23.3-30.6     c0,0-194.2-228.6-348.7,166.8C27.9,568,93.6,626.4,93.6,626.4z" fill="#000000"/>
			<path class="st1" d="M94.8,625.9c0,0,8.2,17.2,26.7,44.5c4.8,6.7,10.2,14.1,17.1,20.9c3.5,3.2,7.3,6.8,11.6,8.3     c3.4,1.4,9.5-0.6,15.1-1.2c11.4-1.8,23.6-3.8,36.4-5.9c12.8-2,26.4-3.9,39.8-8c13.6-3.6,27.8-7.3,42.4-11.1     c14.1-5.5,28.6-11.2,43.6-17.1c14.3-6.9,28.4-15.5,42.5-24.1c12.4-10.8,26.6-20.5,35.9-34.8c21-26.5,29.8-62.1,24.9-97.2     c-2.1-17.6-7.4-35-14.6-51.6c-3.5-8.4-7.7-16.5-12.2-24.3l-3.5-5.7c-1.1-1.8-2.1-2.8-3.8-5.1l-8.8-11.2l-8.8-11.2l-2.2-2.8     c-0.2-0.2-1.2-1.6-0.6-0.8l-1.2-1.3l-4.7-4.7c-6.3-6.1-13.3-12.1-20.5-17.4c-14.3-10.9-29.9-20-46.1-26.1     c-32.4-12.7-67.4-12.7-96.9,0.6c-15.5,5-28.1,15.9-41.4,24.7c-11.7,11.2-23.3,22.2-33.7,33.8c-9.6,12.6-18.9,24.8-27.9,36.7     c-7.6,13-15,25.5-22.1,37.5c-14.5,24-24.2,48.1-34.7,68.5l-3.7,7.6l-0.9,1.9c0-0.3-0.7,1.9-0.1-0.4l-0.2,1     c-0.1,1.1-0.9,3.2-0.4,3.5c0,1.2,2.1,7.4,4.1,10.9c4.3,8.3,9.6,15.7,14.5,22.2l34.2,39.3L94.8,625.9z M92.6,627.3     c-1.2-0.9-16.4-11.9-38.9-35.1c-5.8-6.2-12.2-13-18.1-22c-1.3-2.4-2.9-4.6-4-7.5l-1.8-4.3c-0.5-2-0.8-4.2-1-6.3     c-0.3-2.3,0.2-3,0.2-4.6l0.1-1c0.8-3,0.5-1.4,0.7-2.3l0.8-2c1-2.6,2.1-5.3,3.1-8c4.3-10.9,8.8-22.4,13.6-34.6s9.5-25.2,16.8-37.8     c6.8-12.8,13.9-26.2,21.2-40c9-13,18.3-26.4,27.8-40.3c10.5-13.2,23.1-25.7,36.1-38.1c15-10.5,29.2-22.8,47.8-29.4     c35.6-15.4,79.5-14.5,116,1.7c18.5,7.6,35.4,18.4,50.7,30.8c7.8,6.2,15,12.8,22.1,20l5.2,5.6l1.2,1.3l1.6,2l2.1,2.9l8.4,11.5     l8.5,11.4c1.1,1.6,3.2,4.1,4.5,6.5l3.8,6.6c4.8,8.7,9,17.6,12.6,26.8c7.3,18.2,12.6,37.3,14.5,56.9c4.6,39-6.6,79.6-30.6,108.3     c-10.9,15.5-26.2,25.6-39.9,36.8c-15.1,8.8-30.2,17.4-45.3,24c-15.6,5.5-30.8,10.9-45.4,16.1c-15.1,3.4-29.8,6.8-43.8,10     c-14,3.7-27.5,5.1-40.4,6.7c-12.9,1.6-25.1,3.2-36.5,4.7c-5.8,0.3-10.9,2.6-18,0.4c-6-2.3-9.7-6.4-13.4-10     c-7.1-7.5-12.3-15.2-16.9-22.2C101,646,93.4,629,92.6,627.3z" fill="#000000"/>
		</g>
	</g>
	<g>
		<g>
			<path class="st0" d="M19.4,345.1c0,0-28.3,83.3-11.4,97.1c329.5,267.6,385.6-27,385.6-27l5.2-38.1c0,0,24.3-298.9-364.5-128.6     C14.2,257.2,19.4,345.1,19.4,345.1z" fill="#000000"/>
			<path class="st1" d="M20.6,345.5c0,0-6.4,17.9-12.6,50.4c-1.4,8.1-2.8,17.2-2.7,26.9c0.2,4.7,0.4,10,2.4,14.1     c1.4,3.4,7.1,6.3,11.6,9.8c9.4,6.8,19.4,14,29.9,21.5c10.5,7.6,21.4,15.9,33.8,22.5c12.1,7.1,24.8,14.5,37.9,22.1     c13.9,6,28.2,12.3,42.9,18.7c15,5.2,31,9.1,47.1,13c16.5,1.1,33.3,4.3,50,0.8c33.6-3.9,65-22.8,86.4-51.1     c10.9-13.9,19.5-30,26.2-46.8c3.4-8.4,6.2-17.1,8.5-25.8l1.6-6.4c0.5-2,0.5-3.5,0.9-6.3l1.7-14.1l1.7-14.1l0.4-3.5     c0-0.2,0.2-2,0.1-1l0.1-1.8v-6.6c-0.2-8.8-0.9-18-2.2-26.8c-2.5-17.8-7-35.3-14.2-51.1c-13.9-31.9-38.7-56.6-68.9-68.1     c-14.5-7.4-31.1-8.7-46.7-11.8c-16.1-0.3-32.1-0.8-47.7,0c-15.7,2.1-30.9,4.2-45.7,6.2c-14.6,3.8-28.7,7.4-42.2,10.9     c-27.2,6.7-51.1,16.9-73,23.8c-2.7,0.9-5.4,1.9-8,2.8l-2,0.7c0.2-0.2-1.8,0.9,0.2-0.3l-0.9,0.6c-0.9,0.7-2.9,1.6-2.8,2.2     c-0.8,0.8-3.7,6.7-4.8,10.6c-2.8,8.9-4.3,17.9-5.4,25.9l-3.6,52V345.5z M18.1,344.9c-0.2-1.5-3.1-20-2.8-52.3     c0.3-8.5,0.6-17.8,2.8-28.4c0.8-2.7,1.1-5.3,2.4-8.1l1.8-4.3c1.1-1.8,2.3-3.5,3.7-5.2c1.5-1.8,2.2-2,3.4-3l0.8-0.6     c2.7-1.5,1.3-0.7,2.1-1.1l1.9-0.8c2.6-1.1,5.2-2.3,7.9-3.4c10.7-4.7,22.1-9.6,34.1-14.9s24.5-11.2,38.6-14.8     c13.9-4.3,28.3-8.7,43.2-13.3c15.5-2.8,31.6-5.8,48.1-8.8c16.8-1.9,34.5-1.8,52.4-1.4c18,3.2,36.8,4.5,54.6,13     c36.1,14.3,66.5,46,80.8,83.2c7.6,18.5,12,38,14.1,57.7c1.1,9.9,1.6,19.6,1.4,29.8l-0.3,7.6l-0.1,1.8l-0.3,2.5l-0.5,3.5     l-2.1,14.1l-2.1,14.1c-0.3,1.9-0.7,5.2-1.4,7.8l-2,7.3c-2.8,9.6-6.1,18.8-10,27.9c-7.7,18.1-17.5,35.3-29.9,50.5     c-24.3,30.8-61,51.6-98.2,54.9c-18.7,3.3-36.6-0.5-54.2-2.2c-16.9-4.4-33.6-9-49-15c-14.9-7.1-29.5-14-43.5-20.7     c-13.1-8.3-25.8-16.3-38-23.9c-12.5-7.2-23.1-15.9-33.3-23.8c-10.3-7.9-20-15.5-29.1-22.5c-4.3-3.9-9.6-5.8-13-12.4     c-2.6-5.9-2.3-11.4-2.4-16.5c0.3-10.3,2.1-19.5,3.7-27.7C10.8,364.1,17.4,346.7,18.1,344.9z" fill="#000000"/>
		</g>
		<g>
			<path class="st0" d="M773,447.2c0,0,28.3-83.3,11.4-97.1c-329.5-267.7-385.6,27-385.6,27l-5.2,38.1c0,0-24.3,299,364.5,128.6     C778.1,535,773,447.2,773,447.2z" fill="#000000"/>
			<path class="st1" d="M771.8,446.7c0,0,6.4-17.9,12.6-50.4c1.4-8.1,2.8-17.2,2.7-26.9c-0.2-4.7-0.4-10-2.4-14.1     c-1.4-3.4-7.1-6.3-11.6-9.8c-9.4-6.8-19.4-14-29.9-21.6s-21.4-15.9-33.8-22.5c-12.1-7.1-24.8-14.5-37.9-22.1     c-13.9-6-28.2-12.3-42.9-18.7c-15-5.2-31-9.1-47.1-13c-16.5-1.1-33.3-4.3-50-0.8c-33.6,3.9-65,22.8-86.4,51.1     c-10.9,13.9-19.5,30-26.2,46.8c-3.4,8.4-6.2,17.1-8.5,25.8l-1.6,6.4c-0.5,2-0.5,3.5-0.9,6.3l-1.7,14.1l-1.7,14.1l-0.4,3.5     c0,0.2-0.2,2-0.1,1l-0.1,1.8v6.6c0.2,8.8,0.9,18,2.2,26.8c2.5,17.8,7,35.3,14.2,51.1c13.9,31.9,38.7,56.6,68.9,68.1     c14.5,7.4,31.1,8.7,46.7,11.8c16.1,0.3,32.1,0.8,47.7,0c15.7-2.1,30.9-4.2,45.7-6.2c14.6-3.8,28.7-7.4,42.2-10.9     c27.2-6.7,51.1-16.9,73-23.9c2.7-0.9,5.4-1.9,8-2.8l2-0.7c-0.2,0.2,1.8-0.9-0.2,0.3l0.9-0.6c0.9-0.7,2.9-1.6,2.8-2.2     c0.8-0.8,3.7-6.7,4.8-10.6c2.8-8.9,4.3-17.9,5.4-25.9L771.8,446.7L771.8,446.7z M774.3,447.3c0.2,1.5,3.1,20,2.7,52.3     c-0.3,8.5-0.6,17.8-2.8,28.4c-0.8,2.7-1.1,5.3-2.4,8.1l-1.8,4.3c-1.1,1.8-2.3,3.5-3.7,5.2c-1.5,1.8-2.2,2-3.4,3l-0.8,0.6     c-2.7,1.5-1.3,0.7-2.1,1.1l-1.9,0.8c-2.6,1.1-5.2,2.3-7.9,3.4c-10.7,4.7-22.1,9.6-34.1,14.9s-24.5,11.2-38.6,14.8     c-13.9,4.3-28.3,8.7-43.2,13.3c-15.5,2.8-31.6,5.8-48.1,8.8c-16.8,1.9-34.5,1.8-52.4,1.4c-18-3.2-36.8-4.5-54.6-13     c-36.1-14.3-66.5-46-80.8-83.2c-7.6-18.5-12-38-14.1-57.7c-1.1-9.9-1.6-19.6-1.4-29.8l0.3-7.6l0.1-1.8l0.3-2.5l0.5-3.5l2.1-14.1     l2.1-14.1c0.3-1.9,0.7-5.2,1.3-7.8l2-7.3c2.8-9.6,6.1-18.8,10-27.9c7.7-18.1,17.5-35.3,29.9-50.5c24.3-30.8,61-51.6,98.2-54.9     c18.7-3.3,36.6,0.4,54.2,2.2c16.9,4.4,33.6,9,49,15c14.9,7.1,29.5,14,43.5,20.7c13.1,8.3,25.8,16.3,38,23.9     c12.5,7.2,23.1,15.8,33.3,23.8c10.3,7.9,20,15.5,29.1,22.5c4.3,3.9,9.6,5.8,13,12.4c2.6,5.9,2.3,11.4,2.4,16.5     c-0.3,10.3-2.1,19.5-3.7,27.7C781.6,428.1,775,445.5,774.3,447.3z" fill="#000000"/>
		</g>
		<g>
			<path class="st0" d="M447.2,19.3c0,0-83.3-28.3-97.1-11.3c-267.7,329.5,27,385.6,27,385.6l38.1,5.2c0,0,299,24.4,128.6-364.5     C535.1,14.1,447.2,19.3,447.2,19.3z" fill="#000000"/>
			<path class="st1" d="M446.8,20.5c0,0-17.9-6.4-50.4-12.6c-8.1-1.4-17.2-2.8-26.9-2.7c-4.7,0.2-10,0.4-14.1,2.4     c-3.4,1.4-6.3,7.1-9.8,11.6c-6.8,9.4-14,19.4-21.6,29.9s-15.9,21.4-22.5,33.8c-7.1,12.1-14.5,24.8-22.1,37.9     c-6,13.9-12.3,28.2-18.7,42.9c-5.2,15-9.1,31-13,47.1c-1.1,16.5-4.3,33.3-0.8,50c3.9,33.6,22.8,65,51.1,86.3     c13.9,10.9,30,19.5,46.8,26.2c8.4,3.4,17.1,6.2,25.8,8.5l6.4,1.6c2,0.5,3.5,0.5,6.3,0.9l14.1,1.7l14.1,1.7l3.5,0.4     c0.2,0,2,0.2,1,0.1l1.8,0.1h6.6c8.8-0.2,18-0.8,26.8-2.2c17.8-2.5,35.3-7,51.1-14.2c31.9-13.9,56.6-38.7,68.1-68.9     c7.4-14.5,8.7-31.1,11.8-46.7c0.3-16.1,0.8-32.1,0-47.7c-2.1-15.7-4.2-30.9-6.2-45.7c-3.8-14.6-7.4-28.7-10.9-42.2     c-6.7-27.2-16.9-51.1-23.9-73c-0.9-2.7-1.9-5.4-2.8-8l-0.7-2c0.2,0.2-0.9-1.8,0.3,0.2l-0.6-0.9c-0.7-0.9-1.6-2.9-2.2-2.8     c-0.8-0.8-6.7-3.7-10.6-4.8c-8.9-2.8-17.9-4.3-25.9-5.4L446.8,20.5L446.8,20.5z M447.4,18c1.5-0.2,20-3.1,52.3-2.7     c8.5,0.3,17.8,0.6,28.4,2.8c2.7,0.8,5.3,1.1,8.1,2.4l4.3,1.8c1.8,1.1,3.5,2.4,5.2,3.7c1.8,1.5,2,2.2,3,3.4l0.6,0.8     c1.5,2.7,0.7,1.3,1.1,2.1l0.8,1.9c1.1,2.6,2.3,5.2,3.4,7.9c4.7,10.7,9.6,22.1,14.9,34.1s11.2,24.5,14.8,38.6     c4.3,13.9,8.7,28.3,13.3,43.2c2.8,15.5,5.8,31.6,8.8,48.1c1.9,16.8,1.8,34.5,1.4,52.4c-3.2,18-4.5,36.8-13,54.6     c-14.3,36.1-46,66.5-83.2,80.8c-18.5,7.6-38,12-57.7,14.1c-9.9,1.1-19.6,1.6-29.8,1.4l-7.6-0.3l-1.8-0.1l-2.5-0.3l-3.5-0.5     l-14.1-2.1l-14.1-2.1c-1.9-0.3-5.2-0.7-7.8-1.4l-7.3-2c-9.6-2.8-18.8-6.1-27.9-10c-18.1-7.7-35.3-17.5-50.5-29.9     c-30.8-24.3-51.6-61-54.9-98.2c-3.3-18.7,0.5-36.6,2.2-54.2c4.4-16.9,9-33.6,15-49c7.1-14.9,14-29.5,20.7-43.5     c8.3-13.1,16.3-25.8,23.9-38c7.2-12.5,15.8-23.1,23.8-33.3c7.9-10.3,15.5-20,22.5-29.1c3.9-4.3,5.8-9.6,12.4-13     c5.9-2.6,11.4-2.3,16.5-2.4c10.3,0.3,19.5,2.1,27.7,3.7C428.2,10.7,445.6,17.3,447.4,18z" fill="#000000"/>
		</g>
		<g>
			<path class="st0" d="M345.1,772.9c0,0,83.3,28.3,97.1,11.3c267.7-329.4-27-385.6-27-385.6l-38.1-5.2c0,0-299-24.3-128.7,364.5     C257.3,778,345.1,772.9,345.1,772.9z" fill="#000000"/>
			<path class="st1" d="M345.5,771.7c0,0,17.9,6.4,50.4,12.6c8.1,1.4,17.2,2.8,26.9,2.7c4.7-0.2,10-0.4,14.1-2.4     c3.4-1.4,6.3-7.1,9.8-11.6c6.8-9.4,14-19.4,21.6-29.9s15.9-21.4,22.5-33.8c7.1-12.1,14.5-24.8,22.1-37.9     c6-13.9,12.3-28.2,18.7-42.9c5.2-15,9.1-31,13-47.1c1.1-16.5,4.3-33.3,0.8-50c-3.9-33.6-22.8-65-51.1-86.4     c-13.9-10.9-30-19.5-46.8-26.2c-8.4-3.4-17.1-6.2-25.8-8.5l-6.4-1.6c-2-0.5-3.5-0.5-6.2-0.9l-14.1-1.7l-14.1-1.7l-3.5-0.4     c-0.2,0-2-0.2-1-0.1l-1.8-0.1H368c-8.8,0.2-18,0.9-26.8,2.2c-17.8,2.5-35.3,7-51.1,14.2c-31.9,13.9-56.6,38.7-68.1,68.9     c-7.4,14.5-8.7,31.1-11.8,46.7c-0.3,16.1-0.8,32.1,0,47.7c2.1,15.7,4.2,30.9,6.2,45.7c3.8,14.6,7.4,28.7,10.9,42.2     c6.7,27.2,16.9,51.1,23.8,73c0.9,2.7,1.9,5.4,2.8,8l0.7,2c-0.2-0.2,0.9,1.8-0.3-0.2l0.6,0.9c0.7,0.9,1.6,2.9,2.2,2.8     c0.8,0.8,6.7,3.7,10.6,4.8c8.9,2.8,17.9,4.3,25.9,5.4l52,3.6L345.5,771.7z M345,774.2c-1.5,0.2-20,3.1-52.3,2.7     c-8.5-0.3-17.8-0.6-28.4-2.8c-2.7-0.8-5.3-1.1-8.1-2.4l-4.3-1.8c-1.8-1.1-3.5-2.3-5.2-3.7c-1.8-1.5-2-2.2-3-3.4l-0.6-0.8     c-1.5-2.7-0.7-1.3-1.1-2.1l-0.8-1.9c-1.1-2.6-2.3-5.2-3.4-7.9c-4.7-10.7-9.6-22.1-14.9-34.1c-5.3-12-11.2-24.5-14.8-38.6     c-4.3-13.9-8.7-28.3-13.3-43.2c-2.8-15.5-5.8-31.6-8.8-48.1c-1.9-16.8-1.8-34.5-1.4-52.4c3.2-18,4.5-36.8,13-54.6     c14.3-36.1,46-66.5,83.2-80.8c18.5-7.6,38-12,57.7-14.1c9.9-1.1,19.6-1.6,29.8-1.4l7.6,0.3l1.8,0.1l2.5,0.3l3.5,0.5l14.1,2.1     l14.1,2.1c1.9,0.3,5.2,0.7,7.8,1.4l7.3,2c9.6,2.8,18.8,6.1,27.8,10c18.1,7.7,35.3,17.5,50.5,29.9c30.8,24.3,51.6,61,54.9,98.2     c3.3,18.7-0.4,36.6-2.2,54.2c-4.4,16.9-9,33.6-15,49c-7.1,14.9-14,29.5-20.7,43.5c-8.3,13.1-16.3,25.8-23.9,38     c-7.2,12.5-15.9,23.1-23.8,33.3c-7.9,10.3-15.5,20-22.5,29.1c-3.9,4.3-5.9,9.6-12.4,13c-5.9,2.6-11.4,2.3-16.5,2.4     c-10.3-0.3-19.5-2.1-27.7-3.7C364.1,781.5,346.7,774.9,345,774.2z" fill="#000000"/>
		</g>
	</g>
	<g>
		<g>
			<path class="st2" d="M396.2,396.1c0,0-65.8-265.5,145.3-274.1c211.1-8.5,78.6,154.7,78.6,154.7L396.2,396.1z" fill="#000000"/>
			<path class="st1" d="M394.9,396.4c-6.2-25.1-9.9-50.8-11.2-76.7c-0.8-12.9-0.7-26,0.1-38.9l1.6-19.5l3.4-19.4     c0.8-6.5,3.2-12.7,5-19.1c2-6.3,3.5-12.8,6.7-18.7l8.6-18.1l11.7-16.5c3.5-5.9,8.9-10,13.8-14.7c5.2-4.3,9.4-10,15.6-12.9     c11.6-7,23.1-14.4,36.3-17.8c6.4-2,12.7-4.8,19.3-6l19.9-2.8c6.8-0.7,12.9-2.4,20.3-2.2l19.3-0.2c12.5-0.9,26.6,1.8,40.2,3.2     c13.4,3.4,27.1,6.5,39.8,15.3c6.8,3,11.3,10.4,16.8,15.8c3.5,6.8,8.2,14.1,9.1,21.7c3.8,15.5,0.8,30.2-2.4,43.9     c-8.2,27.1-21.4,50.4-38.5,72.1l-1.6,2l-2.4,1.3c-37.3,20-75.6,37.9-113.5,56.8c-38.3,18-76.7,36-115.9,52.2l-1.5,0.6     L394.9,396.4z M397.1,394c34.9-23.2,70.6-44.7,106.4-66.2c36.8-20.9,73.1-42.7,110.4-62.6l-4,3.3c14-19.1,27.7-40.7,34.8-62.8     c3.1-10.9,5.8-22.4,3.5-32.2c-0.2-5.3-3.3-9.2-4.9-13.8c-3.9-3.3-5.5-8.4-10.8-10.7c-8.4-6.6-20-10-31.3-13.3     c-12-1.5-23.2-4.5-36.5-4.2l-19.3-0.5c-5.6-0.4-12.1,1-18.1,1.4l-18.4,1.9c-6.1,0.9-11.7,3.3-17.6,4.9     c-12.2,2.5-22.6,8.9-33.2,14.8c-5.8,2.4-9.5,7.4-14.4,11.1c-4.5,4.1-9.6,7.6-12.9,12.8l-11.3,14.6l-8.7,16.4     c-3.3,5.3-4.9,11.4-7.1,17.3c-2,5.9-4.6,11.7-5.6,17.9C386.4,292.5,388,344.4,397.1,394z" fill="#000000"/>
		</g>
		<g>
			<path class="st0" d="M396.2,396.1c0,0-65.8-265.5,145.3-274.1c211.1-8.5,78.6,154.7,78.6,154.7L396.2,396.1z" fill="#000000"/>
			<path class="st1" d="M394.9,396.4c-6.2-25.1-9.9-50.8-11.2-76.7c-0.8-12.9-0.7-26,0.1-38.9l1.6-19.5l3.4-19.4     c0.8-6.5,3.2-12.7,5-19.1c2-6.3,3.5-12.8,6.7-18.7l8.6-18.1l11.7-16.5c3.5-5.9,8.9-10,13.8-14.7c5.2-4.3,9.4-10,15.6-12.9     c11.6-7,23.1-14.4,36.3-17.8c6.4-2,12.7-4.8,19.3-6l19.9-2.8c6.8-0.7,12.9-2.4,20.3-2.2l19.3-0.2c12.5-0.9,26.6,1.8,40.2,3.2     c13.4,3.4,27.1,6.5,39.8,15.3c6.8,3,11.3,10.4,16.8,15.8c3.5,6.8,8.2,14.1,9.1,21.7c3.8,15.5,0.8,30.2-2.4,43.9     c-8.2,27.1-21.4,50.4-38.5,72.1l-1.6,2l-2.4,1.3c-37.3,20-75.6,37.9-113.5,56.8c-38.3,18-76.7,36-115.9,52.2l-1.5,0.6     L394.9,396.4z M397.1,394c34.9-23.2,70.6-44.7,106.4-66.2c36.8-20.9,73.1-42.7,110.4-62.6l-4,3.3c14-19.1,27.7-40.7,34.8-62.8     c3.1-10.9,5.8-22.4,3.5-32.2c-0.2-5.3-3.3-9.2-4.9-13.8c-3.9-3.3-5.5-8.4-10.8-10.7c-8.4-6.6-20-10-31.3-13.3     c-12-1.5-23.2-4.5-36.5-4.2l-19.3-0.5c-5.6-0.4-12.1,1-18.1,1.4l-18.4,1.9c-6.1,0.9-11.7,3.3-17.6,4.9     c-12.2,2.5-22.6,8.9-33.2,14.8c-5.8,2.4-9.5,7.4-14.4,11.1c-4.5,4.1-9.6,7.6-12.9,12.8l-11.3,14.6l-8.7,16.4     c-3.3,5.3-4.9,11.4-7.1,17.3c-2,5.9-4.6,11.7-5.6,17.9C386.4,292.5,388,344.4,397.1,394z" fill="#000000"/>
		</g>
		<g>
			<path class="st0" d="M396.2,396.1c0,0,141.2-234.3,296.5-91.1s-53.8,165-53.8,165L396.2,396.1z" fill="#000000"/>
			<path class="st1" d="M395.1,395.4c13.4-22.1,28.9-42.9,46.3-62.1c8.6-9.7,17.8-18.9,27.6-27.5l14.9-12.7l16.1-11.3     c5.2-4.1,11.3-6.7,17-10c5.9-3.1,11.5-6.6,17.9-8.5l18.8-6.8l19.9-3.4c6.6-1.7,13.4-0.8,20.2-0.7c6.7,0.6,13.7-0.4,20.2,1.9     c13.2,3.2,26.6,6.1,38.2,13.1c5.9,3.1,12.4,5.6,17.9,9.4l16,12c5.3,4.3,10.8,7.4,15.9,12.8l13.8,13.5     c9.5,8.2,17.6,20.1,26.2,30.7c7.1,11.9,14.6,23.8,17.3,38.9c2.7,6.9,0.6,15.4,0.7,23.1c-2.3,7.3-4.2,15.8-8.9,21.8     c-8.3,13.7-20.8,21.9-32.7,29.4c-25,13.4-50.8,20.5-78.2,23.8l-2.5,0.3l-2.6-0.8c-40.5-12.2-80.3-26.7-120.4-40     c-39.8-14.4-79.6-28.8-118.9-45.1l-1.5-0.6L395.1,395.4z M398.3,395.3c41,8.3,81.5,18.3,122,28.4c40.8,11.2,81.9,21.5,122.3,33.8     l-5.1-0.5c23.4-3.6,48.4-9.2,69-19.8c9.9-5.5,19.9-11.7,25.3-20.3c3.6-3.9,4.2-8.8,6.3-13.3c-0.4-5,2-9.8,0-15.2     c-1.3-10.6-7.1-21.3-12.7-31.5c-7.4-9.5-13.2-19.6-22.8-28.7l-13.3-14c-3.6-4.2-9.3-7.8-13.8-11.8l-14.4-11.7     c-5-3.6-10.6-5.9-15.9-9c-10.4-6.8-22.2-9.7-33.9-13.1c-5.7-2.4-12-1.5-18-2.3c-6.1-0.3-12.2-1.4-18.2-0.1l-18.3,2.3l-17.7,5.5     c-6.1,1.4-11.6,4.6-17.2,7.2c-5.6,2.8-11.5,5-16.7,8.7C462.5,315.9,427,353.7,398.3,395.3z" fill="#000000"/>
		</g>
		<g>
			<path class="st0" d="M396.2,396.1c0,0,265.6-65.8,274.1,145.3S515.6,620,515.6,620L396.2,396.1z" fill="#000000"/>
			<path class="st1" d="M395.9,394.9c25.1-6.2,50.8-9.9,76.7-11.2c12.9-0.8,26-0.7,39,0.1l19.5,1.6l19.4,3.4     c6.5,0.8,12.7,3.2,19.1,5c6.3,2,12.8,3.5,18.7,6.7l18.1,8.6l16.5,11.7c5.9,3.5,10.1,8.9,14.7,13.8c4.3,5.2,10,9.4,12.9,15.6     c7,11.6,14.4,23.1,17.8,36.3c2,6.4,4.8,12.7,6,19.3l2.8,19.9c0.7,6.8,2.4,12.9,2.2,20.3l0.2,19.3c0.9,12.5-1.8,26.6-3.2,40.2     c-3.4,13.4-6.5,27.1-15.3,39.8c-3,6.8-10.4,11.3-15.8,16.8c-6.8,3.5-14.1,8.2-21.7,9.1c-15.5,3.8-30.2,0.8-43.9-2.4     c-27.1-8.2-50.4-21.4-72.1-38.5l-2-1.6l-1.3-2.4c-20-37.3-37.9-75.6-56.8-113.5c-18-38.3-36-76.7-52.2-115.9l-0.6-1.5     L395.9,394.9z M398.3,397.1c23.2,34.9,44.7,70.6,66.2,106.4c20.9,36.8,42.7,73.1,62.5,110.4l-3.3-4c19.1,14,40.7,27.7,62.8,34.8     c10.9,3.1,22.4,5.8,32.2,3.5c5.3-0.2,9.2-3.3,13.8-4.9c3.3-3.9,8.4-5.5,10.7-10.8c6.6-8.4,10-20,13.3-31.3     c1.5-12,4.5-23.2,4.2-36.5l0.5-19.3c0.4-5.6-1-12.1-1.4-18.1l-1.9-18.4c-0.9-6.1-3.3-11.7-4.9-17.6c-2.5-12.2-8.9-22.6-14.8-33.2     c-2.4-5.8-7.4-9.5-11.1-14.4c-4.1-4.5-7.6-9.6-12.8-12.9l-14.6-11.3l-16.4-8.7c-5.3-3.3-11.4-4.9-17.3-7.1     c-5.9-2-11.7-4.6-17.9-5.6C499.7,386.3,447.9,387.9,398.3,397.1z" fill="#000000"/>
		</g>
		<g>
			<path class="st0" d="M396.2,396.1c0,0,234.3,141.3,91.1,296.6s-165-53.8-165-53.8L396.2,396.1z" fill="#000000"/>
			<path class="st1" d="M396.8,395c22.1,13.4,42.9,28.9,62.1,46.3c9.7,8.6,18.9,17.8,27.5,27.6l12.7,14.9l11.3,16.1     c4.1,5.2,6.7,11.3,10,17c3.1,5.9,6.6,11.5,8.5,17.9l6.8,18.8l3.4,19.9c1.7,6.6,0.8,13.4,0.7,20.2c-0.6,6.7,0.4,13.7-1.9,20.2     c-3.2,13.2-6.1,26.6-13.1,38.2c-3.1,5.9-5.6,12.4-9.4,17.9l-12,16c-4.3,5.3-7.4,10.8-12.8,15.9l-13.5,13.8     c-8.2,9.5-20.1,17.6-30.7,26.2c-11.9,7.1-23.8,14.6-38.9,17.3c-6.9,2.7-15.4,0.6-23.1,0.7c-7.3-2.3-15.8-4.2-21.8-8.9     c-13.7-8.3-21.9-20.8-29.4-32.7c-13.4-25-20.5-50.8-23.8-78.2l-0.3-2.5l0.8-2.6c12.2-40.5,26.7-80.3,40-120.4     c14.4-39.8,28.8-79.6,45.1-118.9l0.6-1.5L396.8,395z M397,398.3c-8.3,41-18.3,81.5-28.4,122c-11.2,40.8-21.5,81.9-33.8,122.3     l0.5-5.1c3.6,23.4,9.2,48.4,19.8,69c5.5,9.9,11.7,19.9,20.3,25.3c3.9,3.6,8.8,4.2,13.3,6.3c5-0.4,9.8,2,15.2,0     c10.6-1.3,21.3-7.1,31.5-12.7c9.5-7.4,19.6-13.2,28.7-22.9l14-13.3c4.2-3.6,7.8-9.3,11.8-13.8l11.7-14.4c3.6-5,5.9-10.6,9-15.9     c6.8-10.4,9.7-22.2,13-33.9c2.4-5.7,1.5-12,2.3-18c0.3-6.1,1.4-12.2,0.1-18.2l-2.3-18.3l-5.5-17.7c-1.4-6.1-4.6-11.6-7.2-17.2     c-2.8-5.6-5.1-11.5-8.7-16.7C476.3,462.4,438.5,426.9,397,398.3z" fill="#000000"/>
		</g>
		<g>
			<path class="st0" d="M396.2,396.1c0,0,65.8,265.5-145.3,274.1c-211.1,8.5-78.6-154.7-78.6-154.7L396.2,396.1z" fill="#000000"/>
			<path class="st1" d="M397.4,395.8c6.2,25.1,9.9,50.8,11.2,76.7c0.8,12.9,0.7,26,0,38.9l-1.6,19.5l-3.4,19.4     c-0.8,6.5-3.2,12.7-5,19.1c-2,6.3-3.5,12.8-6.7,18.7l-8.5,18.1l-11.7,16.5c-3.5,5.9-8.9,10.1-13.8,14.7     c-5.2,4.3-9.4,10-15.6,12.9c-11.6,7-23.1,14.4-36.3,17.8c-6.4,2-12.7,4.8-19.3,6l-19.9,2.8c-6.8,0.7-12.9,2.4-20.3,2.2l-19.3,0.2     c-12.5,0.9-26.6-1.8-40.2-3.2c-13.4-3.4-27.1-6.5-39.8-15.3c-6.8-3-11.3-10.4-16.8-15.8c-3.5-6.8-8.2-14.1-9.1-21.7     c-3.8-15.5-0.8-30.2,2.4-43.9c8.2-27.1,21.4-50.4,38.5-72.1l1.6-2l2.4-1.3c37.3-20,75.6-37.9,113.5-56.9     c38.3-18,76.7-36,115.9-52.2l1.5-0.6L397.4,395.8z M395.2,398.2c-34.9,23.2-70.6,44.7-106.4,66.2     c-36.8,20.9-73.1,42.7-110.4,62.6l4-3.3c-14,19.1-27.7,40.7-34.8,62.8c-3.1,10.9-5.7,22.4-3.5,32.2c0.2,5.3,3.3,9.2,4.9,13.8     c3.9,3.3,5.5,8.4,10.8,10.7c8.4,6.6,20,10,31.3,13.3c12,1.5,23.2,4.5,36.5,4.2l19.3,0.5c5.6,0.4,12.1-1,18.1-1.4l18.4-1.9     c6.1-1,11.7-3.3,17.6-4.9c12.2-2.5,22.6-8.9,33.2-14.8c5.8-2.4,9.5-7.4,14.4-11.1c4.5-4.1,9.6-7.6,12.9-12.8l11.3-14.6l8.7-16.4     c3.3-5.3,4.9-11.4,7.1-17.3c2-5.9,4.6-11.7,5.6-17.9C406,499.6,404.3,447.8,395.2,398.2z" fill="#000000"/>
		</g>
		<g>
			<path class="st0" d="M396.2,396.1c0,0-141.2,234.3-296.5,91.1s53.8-164.9,53.8-164.9L396.2,396.1z" fill="#000000"/>
			<path class="st1" d="M397.2,396.8c-13.4,22.1-28.9,42.9-46.3,62.1c-8.6,9.7-17.8,18.9-27.6,27.5l-14.9,12.7l-16.1,11.3     c-5.2,4.1-11.3,6.7-17,10c-5.9,3.1-11.5,6.6-17.9,8.5l-18.8,6.8l-19.9,3.4c-6.6,1.7-13.4,0.8-20.2,0.7     c-6.7-0.6-13.7,0.4-20.2-1.9c-13.2-3.2-26.6-6.1-38.2-13.1c-5.9-3.1-12.4-5.6-17.9-9.4l-16-12c-5.3-4.3-10.8-7.4-15.9-12.8     l-13.8-13.5c-9.5-8.2-17.6-20.1-26.2-30.7c-7.1-11.9-14.6-23.8-17.3-38.9c-2.7-6.9-0.6-15.4-0.8-23.1c2.3-7.3,4.2-15.8,8.9-21.8     c8.3-13.7,20.8-21.9,32.7-29.4c25-13.4,50.8-20.5,78.2-23.8l2.5-0.3l2.6,0.8c40.5,12.2,80.3,26.6,120.4,40     c39.8,14.4,79.6,28.8,118.9,45.1l1.5,0.6L397.2,396.8z M394,396.9c-41-8.2-81.5-18.3-122-28.4c-40.8-11.2-81.9-21.4-122.3-33.8     l5.1,0.5c-23.4,3.6-48.4,9.2-69,19.8c-9.9,5.5-19.9,11.7-25.3,20.3c-3.6,3.9-4.2,8.8-6.3,13.3c0.4,5-2,9.8,0,15.2     c1.3,10.6,7.1,21.3,12.7,31.5c7.4,9.5,13.2,19.6,22.9,28.7l13.3,14c3.6,4.2,9.3,7.8,13.8,11.8l14.4,11.7c5,3.6,10.6,5.9,15.9,9     c10.4,6.8,22.2,9.7,33.9,13c5.7,2.4,12,1.5,18,2.3c6.1,0.3,12.2,1.4,18.2,0.1l18.3-2.3l17.7-5.5c6.1-1.4,11.6-4.6,17.2-7.2     c5.6-2.8,11.5-5.1,16.7-8.7C329.9,476.2,365.4,438.4,394,396.9z" fill="#000000"/>
		</g>
		<g>
			<path class="st0" d="M396.2,396.1c0,0-265.5,65.8-274.1-145.3c-8.5-211.1,154.7-78.6,154.7-78.6L396.2,396.1z" fill="#000000"/>
			<path class="st1" d="M396.5,397.3c-25.1,6.2-50.8,9.9-76.7,11.2c-12.9,0.8-26,0.7-38.9,0l-19.5-1.6l-19.4-3.4     c-6.5-0.8-12.7-3.2-19.1-5c-6.3-2-12.8-3.5-18.7-6.7l-18.1-8.5l-16.5-11.7c-5.9-3.5-10.1-8.9-14.7-13.8     c-4.3-5.2-10-9.4-12.9-15.6c-7-11.6-14.4-23.1-17.8-36.3c-2-6.4-4.8-12.7-6-19.3l-2.8-19.9c-0.7-6.8-2.4-12.9-2.2-20.3l-0.2-19.3     c-0.9-12.5,1.8-26.6,3.2-40.2c3.4-13.4,6.5-27.1,15.3-39.8c3-6.8,10.4-11.3,15.8-16.8c6.8-3.5,14.1-8.2,21.7-9.1     c15.5-3.8,30.2-0.8,43.9,2.4c27.1,8.2,50.4,21.4,72.1,38.5l2,1.6l1.3,2.4c20,37.3,37.9,75.6,56.8,113.5     c18,38.3,36,76.7,52.2,115.9l0.6,1.5L396.5,397.3z M394.1,395.1c-23.2-34.9-44.7-70.6-66.2-106.4     c-20.9-36.8-42.7-73.1-62.6-110.4l3.3,4c-19.1-14-40.7-27.7-62.8-34.8c-10.9-3.1-22.4-5.7-32.2-3.5c-5.3,0.2-9.2,3.3-13.8,4.9     c-3.3,3.9-8.4,5.5-10.7,10.8c-6.6,8.4-10,20-13.3,31.3c-1.5,12-4.5,23.2-4.2,36.5l-0.5,19.3c-0.4,5.6,1,12.1,1.4,18.1l1.9,18.4     c0.9,6.1,3.3,11.7,4.9,17.6c2.5,12.2,8.9,22.6,14.8,33.2c2.4,5.8,7.4,9.5,11.1,14.4c4.1,4.5,7.6,9.6,12.8,12.9l14.6,11.3     l16.4,8.7c5.3,3.3,11.4,4.9,17.3,7.1c5.9,2,11.7,4.6,17.9,5.6C292.6,405.9,344.4,404.2,394.1,395.1z" fill="#000000"/>
		</g>
		<g>
			<path class="st0" d="M396.2,396.1c0,0-234.3-141.2-91.1-296.5s165,53.8,165,53.8L396.2,396.1z" fill="#000000"/>
			<path class="st1" d="M395.5,397.2c-22.1-13.4-42.9-28.9-62.1-46.3c-9.7-8.6-18.9-17.8-27.5-27.6l-12.7-14.9l-11.3-16.1     c-4.1-5.2-6.7-11.3-10-17c-3.1-5.9-6.6-11.5-8.5-17.9l-6.8-18.8l-3.4-19.9c-1.7-6.6-0.8-13.4-0.7-20.2c0.6-6.7-0.4-13.7,1.9-20.2     c3.2-13.2,6.1-26.6,13.1-38.2c3.1-5.9,5.6-12.4,9.4-17.9l12-16c4.3-5.3,7.4-10.8,12.8-15.9l13.5-13.8     c8.2-9.5,20.1-17.6,30.7-26.2c11.9-7.1,23.8-14.6,38.9-17.3c6.9-2.7,15.4-0.6,23.1-0.8c7.3,2.3,15.8,4.2,21.8,8.9     c13.7,8.3,21.9,20.8,29.4,32.7c13.4,25,20.5,50.7,23.8,78.2l0.3,2.5l-0.8,2.6c-12.2,40.5-26.7,80.3-40,120.4     c-14.4,39.8-28.8,79.6-45.1,118.9l-0.6,1.5L395.5,397.2z M395.4,393.9c8.3-41,18.3-81.5,28.4-122c11.2-40.8,21.5-81.9,33.8-122.3     l-0.5,5.1c-3.6-23.4-9.2-48.4-19.8-69c-5.5-9.9-11.7-19.9-20.3-25.2c-3.9-3.6-8.8-4.2-13.3-6.3c-5,0.4-9.8-2-15.2,0     c-10.6,1.3-21.3,7.1-31.5,12.7c-9.5,7.4-19.6,13.2-28.7,22.8l-14,13.3c-4.2,3.6-7.8,9.3-11.8,13.8l-11.7,14.4     c-3.6,5-5.9,10.6-9,15.9c-6.8,10.4-9.7,22.2-13.1,33.9c-2.4,5.7-1.5,12-2.3,18c-0.3,6.1-1.4,12.2-0.1,18.2l2.3,18.3l5.5,17.7     c1.4,6.1,4.6,11.6,7.2,17.2c2.8,5.6,5.1,11.5,8.7,16.6C316,329.8,353.8,365.3,395.4,393.9z" fill="#000000"/>
		</g>
	</g>
	<g>
		<g>
			<path class="st2" d="M429.6,306.7c0,0-64.5-19.2-115,32.9c-50.6,52,8.2,147.9,8.2,147.9s18.9-46.6,45.1-95.9     C394,342.3,429.6,306.7,429.6,306.7z" fill="#000000"/>
			<path class="st1" d="M426.6,307.5c-22-3.9-45.1-1.5-65.4,6.7c-10.6,4.2-20.4,10.1-29,17.4c-4.5,3.4-8.2,7.7-12.3,11.6     c-2.6,3.5-7.8,9.2-9.5,13.5c-2.4,4.3-4.3,9.1-5.6,14.4c-1.6,5.1-1.9,10.6-2.4,15.9c-0.5,10.9,1.1,21.9,3.5,32.8     c2.7,10.9,6.4,21.6,10.9,32c4.5,10.3,10.1,20.6,15.8,29.6l-20.6,1.7c12.1-33.7,26.8-66.1,45.2-96.8c9.2-15.5,20.2-30.6,32.2-43.8     C400.7,329.6,413,317.9,426.6,307.5z M430.5,307.6c-9.9,14.7-19.3,29.5-28.3,44.3c-8.8,15.2-16.7,29.9-24.1,45.5     c-14.4,31.6-29.7,63.1-44.7,94.4l-10.1,21.1l-10.4-19.4c-6.2-11.5-10.9-22.4-15.1-34.2c-4.2-11.6-7.5-23.6-9.8-35.8     c-4-24.4-3.8-51.3,10.9-74.6c3.6-6.2,7-9,11.9-14.6c4.8-4,9.2-8.3,14.5-11.6c10-7.2,21.3-12.7,33-16.3     c23.4-7.2,48.5-7.5,71.6-0.9l1.7,0.5L430.5,307.6z" fill="#000000"/>
		</g>
		<g>
			<path class="st2" d="M429.6,316.9c0,0-64.5-29.4-115,22.6c-50.6,52,8.2,147.9,8.2,147.9s18.9-46.6,45.1-95.9     C394,342.3,429.6,316.9,429.6,316.9z" fill="#000000"/>
			<path class="st1" d="M426.6,317.4c-21.2-6.9-44.6-7.6-65.2-1.1c-10.8,3.3-20.8,8.7-29.4,15.9c-4.6,3.2-8.2,7.6-12.2,11.4     c-2.5,3.6-7.8,9.2-9.4,13.5l-3.3,6.7l-2.2,7.7c-1.5,5.1-1.9,10.6-2.3,15.9c-0.5,10.8,1.2,21.9,3.5,32.7     c2.7,10.8,6.4,21.5,10.9,31.8c4.5,10.2,10.1,20.6,15.8,29.5l-20.8,1.7c11.7-32.5,25.8-63.6,43.6-93.2c4.4-7.8,9.1-14.5,14.6-22.1     c5.2-7.2,11.3-13.7,17.3-20C399.1,335.8,412.1,325.4,426.6,317.4z M430.4,317.9c-11.5,12.5-21.5,26-30.7,39.7     c-4.5,6.9-8.4,14.2-12.5,21.2c-3.7,6.7-7.5,14.7-10.9,21.9c-13.7,30.6-28.3,61-42.7,91.1l-10.2,21.5l-10.6-19.8     c-6.1-11.5-10.9-22.4-15-34.1c-4.1-11.6-7.5-23.5-9.7-35.8c-4-24.4-3.9-51.3,10.7-74.5c3.6-6.4,7-9,11.8-14.7     c4.8-4,9.2-8.4,14.7-11.6c10.2-7.1,21.9-12.1,33.9-14.8c24.1-5.4,49.2-2.2,71,7.6l1.6,0.7L430.4,317.9z" fill="#000000"/>
		</g>
		<g>
			<path class="st2" d="M462.4,479.5c0,0,51-37.9,28.4-106.9c-22.6-69-134.9-61.3-134.9-61.3s32.5,38.4,64,84.4     S462.4,479.5,462.4,479.5z" fill="#000000"/>
			<path class="st1" d="M463.1,476.9c15.8-15.1,26.3-35.7,28.2-56.8c0.4-5.5,0.8-11,0.1-16.4c-0.2-5.5-1.5-10.8-2.6-16.2     c-1.6-5-3-11-5.1-15.1c-2.4-5.4-4.9-10.6-8.1-14c-5.7-8-14.3-14.9-23.6-19.8c-9.2-5.3-19.7-8.5-30.1-11.3     c-10.6-2.6-21.6-4-32.5-4.8c-10.9-0.7-22.4-0.5-32.7,0.4l8.1-19.2c23,25,43.8,51.5,61.4,80.5c9,14.3,17.2,29.8,23.4,45.7     C455.9,445,460.6,460.7,463.1,476.9z M461.2,479.9c-7.8-14.8-16.6-28.9-25.5-42.7c-9.2-13.7-18.7-26.6-28.8-39.6     c-20.4-25.9-40.3-52.5-59.9-78.8l-14.2-19l22.3-0.2c12.7-0.1,24.3,0.8,36.3,2.5c11.9,1.7,23.7,3.9,35.3,7.6     c11.5,3.8,23.1,8.1,33.5,15.1c5.4,2.9,10.1,7.4,14.9,11.3c4.2,4.8,8.9,8.8,12.2,14.8c4.1,5.7,6.1,11.1,8.1,16.4     c2.5,6.4,3.2,11.9,4.5,18c0.7,6,1.6,12,1.4,18.1c0.2,6-0.7,12.1-1.6,18c-4.3,23.8-17.9,45-36.5,59.3l-1.2,0.9L461.2,479.9z" fill="#000000"/>
		</g>
		<g>
			<path class="st2" d="M297.4,431.2c0,0,10.7,70.1,82.2,82.1c71.6,12,116.9-91,116.9-91s-49.1,11-104.5,17.5     C336.7,446.4,297.4,431.2,297.4,431.2z" fill="#000000"/>
			<path class="st1" d="M299.5,433.5c5.8,21.5,18.1,41.4,35.1,54.7c8.8,7,18.9,12.2,29.6,15.1c5.2,2,10.9,2.3,16.3,3.5     c4.3-0.2,12.1,1.3,16.4-0.1c4.9-0.5,9.9-1.8,14.9-3.7c5-1.7,9.7-4.4,14.3-7.2c9.2-5.7,17.2-13.4,24.8-21.5     c7.3-8.4,14-17.5,19.9-27.1c5.8-9.5,11.1-20,15.2-29.7l13.3,16.2c-33.1,8.8-66.5,14.9-100.6,17.1c-17,1.4-35.4,0.9-52.4-2.2     C330,445.9,314.1,441.1,299.5,433.5z M297.9,430c16.6,2.6,33.2,3.2,49.5,3c8.2-0.1,16.3-1.2,24.3-1.8l11.9-1.6l12.2-2     c32.6-6.1,65.7-11.4,98.3-16.8l23.6-3.8l-10.3,20c-5.9,11.5-12.2,21.6-19.5,31.7c-7.2,9.9-15,19.5-23.8,28.3     c-17.7,17.1-39.8,32.4-67.1,33.7c-7.4,0.8-11.4-0.7-18.8-1.2c-6-1.7-12.1-2.8-17.8-5.4c-11.7-4.3-22.4-11.1-31.4-19.5     c-18-16.9-29.1-39.6-32.9-63.2l-0.3-1.7L297.9,430z" fill="#000000"/>
		</g>
		<g>
			<path class="st2" d="M184.1,333.8c0,0-71.9,133.2,46.9,248.7c118.9,115.5,337.9-18.9,337.9-18.9s-106.4-43.2-219-102.9     C237.3,401.1,184.1,333.8,184.1,333.8z" fill="#000000"/>
			<path class="st1" d="M184.6,336.2c-10.5,23.2-16.4,48.5-18.3,73.7c-1.9,26,1.1,52.2,9.3,76.7c1.6,6.3,4.4,12.1,7,18     c2.5,6,5.1,11.8,8.6,17.3c6,11.4,13.9,21.7,21.8,31.9c8.3,9.5,17.4,19.7,26.6,27.3c10.3,8.2,20.7,16.9,31.9,21.4     c10.4,6.5,23.1,9.2,35,13.2c12.5,1.9,24.9,5.2,37.7,4.8c6.4,0.1,12.7,0.4,19.1,0.3l19.1-1.7c12.7-1.2,25.4-3.8,38-6.5     c12.5-3.1,25-6.3,37.2-10.5c12.4-3.7,24.4-8.7,36.3-13.6c23.8-10,47.3-21.9,68.8-35l1.7,20.9c-70.7-27.7-139.5-59.1-205.7-96.1     c-16.7-9.2-33-18.6-49.2-29.1c-16.2-10.3-31.5-21.7-46.4-33.7C234,392.3,206.8,366.3,184.6,336.2z M185.1,333     c26.5,26.5,56.5,49.3,87.3,70.1c15.4,10.5,31.6,19.7,47.6,29c15.9,9.1,32.7,17.7,49.5,25.9c67.6,32.3,135.5,64.6,203.9,94.8     l21.8,9.6l-20.1,11.3c-24,13.5-48.2,24.6-73.4,34.2c-12.6,4.6-25.2,9.4-38.2,13c-12.8,4.1-26,7.1-39.2,9.9     c-13.3,2.4-26.6,4.8-40.2,5.7l-20.3,1.2c-6.8,0-13.6-0.6-20.4-0.9c-13.6,0-27.1-3.9-40.5-6.3c-13-4.7-26.3-8-38.3-15.8     c-13.1-6.2-22.8-15-32.9-23.5c-10.8-9.5-18.9-19.7-27.5-30.2c-7.9-11-15.7-22-21.6-34.2c-3.4-5.8-6-12.1-8.4-18.4     c-2.5-6.3-5.2-12.5-6.6-19.1c-7.6-25.9-9.6-53.1-6.7-79.7c3-26.5,10.1-52.6,22.2-76.3l0.8-1.5L185.1,333z" fill="#000000"/>
		</g>
		<g>
			<path class="st2" d="M179.5,319.7c0,0-67.3,147.3,51.6,262.8C350,698,569,563.6,569,563.6s-106.4-43.2-219-102.9     C237.3,401.1,179.5,319.7,179.5,319.7z" fill="#000000"/>
			<path class="st1" d="M180,322.4c-9.2,24.3-14.4,50.1-15.8,75.9c-0.9,13.3-0.6,26.7,1,39.8c0.5,6.6,1.5,13.2,3,19.6     c1.2,6.5,2.5,13,4.7,19.3c3.4,12.8,8.9,24.8,14.3,36.8c6.6,11.4,12.8,23,21.2,33.2c7.3,11,17.3,19.8,26.1,29.5     c4,3.7,10.2,8.2,15.2,12.2c5.3,4.3,10.6,8.4,16.3,10.8l16.8,8.6l18.5,5.8c6,2.3,12.5,3.1,18.9,4c6.4,0.7,12.7,2.6,19.3,2.4     c13,0.5,26,0.8,39-0.9c13-0.6,25.9-3.8,38.8-6c25.6-6,50.8-14.2,75.2-24.2c24.3-10.1,48.4-22.2,70.4-35.6l1.7,20.8     c-72.7-28.6-143.5-60.8-211.5-99.1c-17.4-9.6-33.7-19.5-50.4-30.8c-16.4-11-31.6-23.6-46.5-36.4     C227.4,382.7,201.1,354.4,180,322.4z M180.5,319c25.7,28.8,55.1,54,85.5,77c15.4,11.3,31.5,21.6,47.6,31.7     c15.9,9.6,33.2,19.1,50.2,27.3c69.4,33.5,139.2,66.8,209.6,97.8l21.8,9.6l-20,11.3c-24.5,13.8-49.2,25.1-75,34.8     c-25.7,9.6-52.1,17.6-79.2,23c-13.7,1.9-27.2,4.9-41.2,5.2c-13.8,1.4-27.8,0.7-41.7-0.2c-7,0-13.8-2.1-20.7-3.1     c-6.9-1.2-13.8-2.2-20.4-4.9l-19.9-6.9l-18.9-10.4c-6.7-3.2-11.9-7.5-16.9-11.9c-5.3-4.6-10.1-8-15.9-13.5     c-9-10.5-19-20.1-26.3-31.9c-8.4-11-14.6-23.4-21-35.6c-5.2-12.8-10.5-25.5-13.5-38.9c-2-6.6-3.1-13.4-4.1-20.1     c-1.3-6.7-2.1-13.5-2.3-20.4c-1.1-13.6-0.9-27.3,0.5-40.9c2.5-27.1,8.8-53.8,19.6-78.7l0.8-1.8L180.5,319z" fill="#000000"/>
		</g>
		<g>
			<path class="st2" d="M550.8,245c0,0-86.7-116.5-244.2-64.9c-157.5,51.7-140.1,308-140.1,308s87.6-74.2,192.8-146.2     C464.4,269.9,550.8,245,550.8,245z" fill="#000000"/>
			<path class="st1" d="M548.5,244.4c-16.6-19.2-37.2-35-59.3-47.2c-11.4-6.2-23.4-11.2-35.6-15.4c-12.4-3.8-24.9-6.8-37.8-8.3     c-12.8-1.3-25.7-2.5-38.5-1.2c-12.9,0.2-25.5,2.9-38.2,5.1c-12.2,3.4-25.5,6.3-36.4,11.3l-18,8.1c-6,2.7-10.3,7-15.5,10.3     c-10.6,6.1-18.7,16.4-27.8,24.9c-7.3,10.3-16,19.6-21.5,31.2c-6.6,10.9-11.7,22.5-16.4,34.4c-4.7,11.8-8.4,24.2-11.8,36.5     c-3.1,12.5-6,25-7.9,37.7c-2.4,12.6-3.6,25.5-4.8,38.4c-2.2,25.6-2.6,51.9-0.9,76.9l-19.2-8.1c58-50.3,118.4-97.4,182.8-139.2     c31.9-21.1,65.4-41.1,100.4-57.1C476.3,266.9,511.7,253.2,548.5,244.4z M551.1,246.2c-35.2,14.3-68.9,31.9-101.7,50.7     c-32.6,19.3-64,39.6-94.5,62.2c-60.8,45.2-121.6,90.9-180.9,138l-18.5,14.8l-0.7-22.9c-0.8-27.5,0.6-53.9,3.8-80.6     c1.8-13.3,3.3-26.6,6.2-39.7c2.3-13.2,5.7-26.2,9.3-39.2c3.9-12.9,8.1-25.7,13.5-38.1c5.3-12.5,11.1-24.7,18.5-36.2     c6.2-12.1,15.9-22.2,24.1-33c10.3-9.2,19-19.7,31.5-26.7c5.9-3.6,11.6-8.3,17.7-10.8l18.2-7.6c13.2-5.5,26.1-7.5,39.2-10.7     c13.3-1.9,26.6-4.1,40.1-3.9c13.4-0.8,26.9,0.9,40.1,2.7c13.3,2.1,26.2,5.7,38.8,10.1c12.5,4.8,24.6,10.4,36.1,17.2     c22.8,13.7,43.5,30.8,59.9,51.8l1,1.3L551.1,246.2z" fill="#000000"/>
		</g>
		<g>
			<path class="st2" d="M440.5,621.7c0,0,160.1-24.4,187.4-187.9S420.1,166.7,420.1,166.7s25,112.1,40.1,238.6     C475.2,531.9,440.5,621.7,440.5,621.7z" fill="#000000"/>
			<path class="st1" d="M442.6,619.7c25.2-5.6,49.6-15.4,71.8-28.4c11.5-6.6,22.5-14.2,32.5-22.9c5.2-4.1,10.1-8.6,14.6-13.4     c4.7-4.6,9.3-9.3,13.3-14.6c8.7-9.9,15.5-21.3,22.2-32.5c5.8-11.8,11.6-23.5,15.2-36.2c4.9-12.2,6.2-25.5,9.3-38.1l1.2-19.5     l0.6-10.1c-0.2-3.2-0.8-6.3-1.2-9.4c-0.9-6.2-1.5-12.4-2.6-18.6l-5.7-18.4c-1.5-6.3-4.8-11.9-7.5-17.8     c-3.1-5.7-5.1-11.9-9.1-17.1c-7-11-14.2-21.7-23-31.5c-7.9-10.4-17.9-19-27-28.4c-19.4-17.6-40.5-33.6-62.6-47.9     c-22.1-14.2-45.7-27-69.2-37.5l16.2-13.3c17.7,75.4,31.4,151.3,38.6,228.3c1.1,9.6,1.8,19.7,2.4,29c0.8,9.5,0.8,19.7,1.1,29.5     c0.1,19.6-1.2,39.1-3.5,58.5C465.7,547.3,457.4,584.7,442.6,619.7z M439.3,621.2c9.7-37,13.8-75.2,15.3-112.9     c0.7-18.9-0.3-37.8-1-56.7c-0.9-9.4-1.2-18.4-2.5-28c-1.2-9.8-2.2-18.8-3.8-28.3c-11.9-75.5-24.2-151.1-38.7-226l-4.5-23.4     l20.7,10.1c25.2,12.3,48.5,26.1,71.1,41.7c22.5,15.6,44,32.7,63.9,51.8c9.4,10.1,19.5,19.5,27.7,30.8c9,10.6,16.4,22.3,23.6,34.2     c4,5.7,6.2,12.5,9.3,18.7c2.8,6.4,6.1,12.6,7.6,19.5l5.7,20.2c1.1,7,1.6,14.3,2.3,21.4c0.3,3.5,0.8,7.2,0.9,10.6l-0.9,10     c-0.7,7-1,12.8-1.9,20.7c-3.6,13.3-5.6,27-11.2,39.7c-4.3,13.1-10.8,25.3-17.3,37.4c-7.5,11.5-15,23.1-24.4,33.1     c-4.3,5.4-9.3,10.1-14.3,14.7c-4.9,4.8-10,9.3-15.6,13.3c-10.6,8.5-22.2,15.9-34.2,22.2c-23.9,12.8-49.6,22.2-76.4,26.8l-1.9,0.3     L439.3,621.2z" fill="#000000"/>
		</g>
	</g>
	<g>
		<g>
			<path class="st2" d="M431.4,302.8c0,0-64.5-19.2-115,32.9c-50.6,52.1,8.2,147.9,8.2,147.9s18.9-46.6,45.1-95.9     C395.7,338.4,431.4,302.8,431.4,302.8z" fill="#000000"/>
			<path class="st1" d="M428.3,303.7c-22-3.9-45.1-1.5-65.4,6.6c-10.6,4.2-20.4,10.1-29,17.4c-4.5,3.4-8.2,7.7-12.3,11.6     c-2.6,3.5-7.8,9.2-9.5,13.5c-2.4,4.4-4.3,9.1-5.6,14.4c-1.6,5.1-1.9,10.6-2.4,15.9c-0.5,10.9,1.1,21.9,3.5,32.8     c2.7,10.9,6.4,21.6,10.9,32c4.5,10.3,10.1,20.6,15.8,29.6l-20.6,1.7c12.1-33.7,26.8-66.1,45.2-96.8c9.2-15.4,20.1-30.6,32.1-43.8     C402.4,325.8,414.7,314,428.3,303.7z M432.3,303.7c-9.9,14.7-19.3,29.5-28.2,44.3c-8.8,15.2-16.6,29.9-24.1,45.5     c-14.4,31.6-29.7,63.1-44.7,94.4L325.2,509l-10.4-19.4c-6.2-11.5-10.9-22.4-15.1-34.2c-4.2-11.6-7.5-23.6-9.8-35.8     c-4-24.5-3.8-51.3,10.9-74.6c3.6-6.2,7-9,11.9-14.6c4.8-4,9.2-8.3,14.5-11.6c10-7.2,21.3-12.7,33-16.3     c23.4-7.2,48.5-7.5,71.6-0.9l1.7,0.5L432.3,303.7z" fill="#000000"/>
		</g>
		<g>
			<path class="st2" d="M431.4,313.1c0,0-64.5-29.5-115,22.6c-50.6,52.1,8.2,147.9,8.2,147.9s18.9-46.6,45.1-95.9     C395.7,338.4,431.4,313.1,431.4,313.1z" fill="#000000"/>
			<path class="st1" d="M428.3,313.5c-21.2-6.9-44.6-7.7-65.2-1.1c-10.8,3.3-20.8,8.7-29.4,15.9c-4.6,3.2-8.2,7.6-12.2,11.4     c-2.5,3.6-7.8,9.2-9.4,13.5l-3.3,6.7l-2.2,7.7c-1.5,5.1-1.9,10.6-2.3,15.9c-0.5,10.8,1.2,21.9,3.5,32.7     c2.7,10.8,6.4,21.5,10.9,31.8c4.5,10.2,10.1,20.6,15.8,29.5l-20.8,1.7c11.7-32.5,25.9-63.6,43.6-93.2c4.4-7.8,9.1-14.5,14.6-22.1     c5.2-7.2,11.3-13.7,17.3-20C400.8,332,413.8,321.5,428.3,313.5z M432.1,314.1c-11.5,12.5-21.5,26-30.7,39.6     c-4.5,6.9-8.4,14.2-12.5,21.2c-3.7,6.7-7.5,14.7-10.9,21.9c-13.7,30.6-28.3,61-42.7,91.1l-10.2,21.5l-10.6-19.8     c-6.1-11.5-10.9-22.4-15-34.1c-4.1-11.6-7.5-23.5-9.7-35.8c-4-24.4-3.9-51.2,10.7-74.5c3.6-6.4,7-9,11.8-14.7     c4.8-4,9.2-8.4,14.7-11.6c10.2-7.1,21.9-12.1,33.9-14.8c24.1-5.4,49.2-2.2,71,7.6l1.6,0.7L432.1,314.1z" fill="#000000"/>
		</g>
		<g>
			<path class="st2" d="M464.1,475.7c0,0,51-37.9,28.4-106.9c-22.6-68.9-134.9-61.4-134.9-61.4s32.5,38.3,64,84.4     C453.2,437.8,464.1,475.7,464.1,475.7z" fill="#000000"/>
			<path class="st1" d="M464.8,473c15.8-15.1,26.3-35.7,28.2-56.8c0.4-5.5,0.8-11,0.1-16.4c-0.2-5.5-1.5-10.8-2.6-16.2     c-1.6-5-3.1-11-5.1-15.1c-2.4-5.3-4.9-10.6-8-14c-2.4-4.1-6.9-7.5-10.4-11.1c-4.4-2.9-8.3-6.5-13.2-8.7     c-9.2-5.3-19.7-8.5-30.1-11.3c-10.6-2.6-21.6-4-32.5-4.8c-10.9-0.7-22.4-0.6-32.7,0.4l8.1-19.2c23,25,43.8,51.5,61.5,80.5     c9,14.3,17.2,29.8,23.4,45.7C457.6,441.1,462.4,456.8,464.8,473z M462.8,476c-7.8-14.8-16.5-28.9-25.4-42.7     c-9.2-13.7-18.7-26.6-28.8-39.6c-20.4-25.9-40.3-52.5-59.9-78.8l-14.2-19l22.3-0.2c12.7-0.1,24.3,0.8,36.3,2.5     c11.9,1.7,23.7,3.9,35.3,7.6c11.5,3.8,23.1,8.1,33.5,15.1c5.4,2.9,10.1,7.4,14.9,11.3c4.2,4.8,8.9,8.8,12.2,14.8     c4.1,5.7,6.1,11.1,8.1,16.4c2.5,6.4,3.2,11.9,4.5,18c0.7,6,1.6,12,1.4,18.1c0.2,6-0.7,12.1-1.6,18c-4.3,23.8-17.9,45-36.5,59.3     l-1.2,0.9L462.8,476z" fill="#000000"/>
		</g>
		<g>
			<path class="st2" d="M299.1,427.4c0,0,10.7,70.1,82.3,82c71.6,12,116.9-91,116.9-91s-49.1,11-104.5,17.5     C338.4,442.6,299.1,427.4,299.1,427.4z" fill="#000000"/>
			<path class="st1" d="M301.2,429.6c5.8,21.5,18.1,41.3,35.1,54.7c8.8,7,18.9,12.2,29.6,15.1c5.2,2,10.9,2.3,16.3,3.5     c4.3-0.2,12.1,1.3,16.4-0.1c4.9-0.5,9.9-1.8,14.9-3.7c5-1.7,9.7-4.4,14.3-7.2c9.2-5.7,17.2-13.4,24.8-21.5     c7.3-8.4,14-17.5,19.9-27.1c5.8-9.5,11.1-20,15.2-29.7l13.3,16.2c-33.1,8.8-66.5,14.9-100.6,17.1c-17,1.4-35.4,1-52.4-2.2     C331.7,442,315.8,437.2,301.2,429.6z M299.6,426.2c16.6,2.6,33.2,3.2,49.5,3c8.2-0.1,16.3-1.2,24.3-1.8l11.9-1.6l12.2-2     c32.6-6.1,65.7-11.4,98.3-16.7l23.6-3.8l-10.3,20c-5.9,11.5-12.2,21.6-19.5,31.7c-7.2,9.9-15,19.5-23.8,28.3     c-17.7,17.1-39.7,32.4-67.1,33.7c-7.4,0.8-11.4-0.7-18.8-1.2c-6-1.7-12.1-2.8-17.8-5.4c-11.7-4.3-22.4-11.1-31.4-19.5     c-18-16.9-29.2-39.6-32.9-63.2l-0.3-1.7L299.6,426.2z" fill="#000000"/>
		</g>
		<g>
			<path class="st2" d="M185.9,329.9c0,0-71.9,133.2,46.9,248.7c118.9,115.5,337.8-18.8,337.8-18.8s-106.4-43.2-219-102.9     C239,397.2,185.9,329.9,185.9,329.9z" fill="#000000"/>
			<path class="st1" d="M186.3,332.4c-10.5,23.2-16.4,48.5-18.3,73.7c-1.9,26,1.2,52.2,9.3,76.7c1.6,6.3,4.4,12.1,7,18     c2.5,6,5.1,11.8,8.6,17.3c6,11.4,13.9,21.7,21.8,31.9c8.3,9.5,17.4,19.7,26.6,27.3c10.3,8.2,20.7,16.9,31.9,21.4     c10.4,6.5,23.1,9.2,35,13.2c12.5,1.9,24.9,5.2,37.7,4.8c6.4,0.1,12.7,0.4,19.1,0.3l19.1-1.7c12.7-1.2,25.4-3.8,38-6.5     c12.5-3.1,25-6.3,37.2-10.5c12.4-3.7,24.4-8.7,36.3-13.6c23.8-10,47.3-21.9,68.8-35l1.7,20.9c-70.7-27.7-139.5-59.1-205.7-96.2     c-16.7-9.2-33-18.6-49.2-29.1c-16.2-10.3-31.5-21.7-46.4-33.6C235.7,388.5,208.5,362.4,186.3,332.4z M186.9,329.1     c26.5,26.5,56.5,49.3,87.3,70.1c15.4,10.5,31.6,19.7,47.6,29c15.9,9.1,32.7,17.7,49.5,25.9c67.6,32.4,135.4,64.7,203.9,94.8     l21.8,9.6l-20.1,11.3c-24,13.5-48.2,24.6-73.4,34.2c-12.6,4.6-25.2,9.4-38.2,13c-12.8,4.1-26,7.1-39.2,9.9     c-13.3,2.4-26.6,4.8-40.2,5.7l-20.3,1.2c-6.8,0-13.6-0.6-20.4-0.9c-13.6,0-27.1-3.9-40.5-6.3c-13-4.7-26.3-8-38.3-15.8     c-13.1-6.2-22.8-15-32.9-23.5c-10.8-9.6-18.9-19.7-27.5-30.2c-7.9-11-15.7-22-21.6-34.2c-3.4-5.8-6-12.1-8.4-18.4     c-2.5-6.3-5.2-12.5-6.6-19.1c-7.6-25.9-9.6-53.1-6.7-79.7c3-26.5,10.1-52.6,22.2-76.3l0.8-1.5L186.9,329.1z" fill="#000000"/>
		</g>
		<g>
			<path class="st0" d="M181.2,315.8c0,0-67.3,147.3,51.6,262.8s337.8-18.8,337.8-18.8s-106.4-43.2-219-102.9     C239,397.2,181.2,315.8,181.2,315.8z" fill="#000000"/>
			<path class="st1" d="M181.7,318.5c-9.2,24.3-14.4,50.1-15.8,75.9c-0.9,13.3-0.6,26.7,1,39.8c0.5,6.6,1.5,13.2,3,19.6     c1.2,6.5,2.5,13,4.7,19.3c3.4,12.8,8.9,24.8,14.3,36.8c6.6,11.4,12.8,23,21.2,33.2c7.3,11,17.3,19.8,26.1,29.5     c4,3.7,10.2,8.2,15.2,12.2c5.3,4.3,10.6,8.4,16.3,10.8l16.8,8.6L303,610c6,2.3,12.5,3.1,18.9,4c6.4,0.7,12.7,2.6,19.3,2.4     c13,0.4,26,0.8,39-0.9c13-0.6,25.9-3.8,38.8-6c25.6-6,50.8-14.2,75.2-24.2c24.3-10.1,48.4-22.2,70.4-35.6l1.7,20.9     c-72.7-28.6-143.5-60.8-211.4-99.1c-17.4-9.6-33.7-19.5-50.4-30.8c-16.4-11-31.6-23.6-46.5-36.4     C229.1,378.8,202.8,350.5,181.7,318.5z M182.2,315.1c25.7,28.8,55,54,85.5,77c15.4,11.3,31.5,21.6,47.6,31.7     c15.9,9.6,33.2,19,50.2,27.3c69.3,33.6,139.1,66.8,209.5,97.9l21.8,9.6l-20,11.3c-24.5,13.8-49.2,25.1-75,34.8     c-25.7,9.6-52.1,17.6-79.2,23c-13.7,1.9-27.2,4.9-41.2,5.2c-13.8,1.4-27.8,0.7-41.7-0.2c-7,0-13.8-2.1-20.7-3.1     c-6.9-1.2-13.8-2.2-20.4-4.9l-19.9-6.9l-18.9-10.4c-6.7-3.2-11.9-7.5-16.9-11.9c-5.3-4.6-10.1-8-15.9-13.5     c-9-10.5-19-20.1-26.3-31.9c-8.4-11-14.5-23.4-21-35.6c-5.2-12.8-10.5-25.5-13.5-38.9c-2-6.6-3.1-13.4-4.1-20.1     c-1.3-6.7-2.1-13.5-2.3-20.4c-1.1-13.6-0.9-27.3,0.5-40.9c2.5-27.1,8.8-53.8,19.6-78.7l0.8-1.8L182.2,315.1z" fill="#000000"/>
		</g>
		<g>
			<path class="st0" d="M552.5,241.1c0,0-86.7-116.5-244.2-64.8s-140.2,308-140.2,308s87.7-74.2,192.8-146.2     C466.1,266.1,552.5,241.1,552.5,241.1z" fill="#000000"/>
			<path class="st1" d="M550.2,240.5c-16.6-19.2-37.2-35-59.3-47.1c-11.4-6.2-23.4-11.2-35.6-15.4c-12.4-3.8-24.9-6.8-37.8-8.3     c-12.8-1.3-25.7-2.5-38.5-1.2c-12.9,0.2-25.5,2.9-38.2,5.1c-12.2,3.4-25.5,6.3-36.4,11.3l-18,8.1c-6,2.7-10.3,7-15.5,10.3     c-10.6,6.1-18.7,16.4-27.8,24.9c-7.3,10.3-16,19.7-21.5,31.2c-6.6,10.9-11.7,22.5-16.4,34.4c-4.7,11.8-8.4,24.2-11.8,36.5     c-3.1,12.5-6,25-7.9,37.7c-2.4,12.6-3.6,25.5-4.8,38.4c-2.2,25.6-2.6,51.9-0.9,76.9l-19.2-8.1c58-50.3,118.4-97.3,182.8-139.2     c32-21.2,65.4-41.1,100.4-57.1C478.1,263,513.4,249.3,550.2,240.5z M552.8,242.3c-35.2,14.3-68.9,32-101.7,50.7     c-32.6,19.3-64.1,39.6-94.5,62.1c-60.8,45.2-121.6,90.9-180.9,138l-18.5,14.7l-0.7-22.9c-0.8-27.5,0.6-53.9,3.8-80.6     c1.8-13.3,3.3-26.6,6.2-39.7c2.3-13.2,5.7-26.2,9.3-39.2c3.9-12.9,8.1-25.7,13.5-38.1c5.3-12.5,11.1-24.7,18.5-36.2     c6.2-12.1,15.9-22.2,24.1-33c10.3-9.2,19-19.7,31.5-26.7c5.9-3.6,11.6-8.3,17.7-10.8l18.2-7.6c13.2-5.5,26.1-7.5,39.2-10.7     c13.3-1.9,26.6-4.1,40.1-3.9c13.4-0.8,26.9,0.9,40.1,2.7c13.3,2.1,26.2,5.7,38.8,10.1c12.5,4.8,24.6,10.4,36.1,17.2     c22.8,13.7,43.5,30.8,59.9,51.8l1,1.3L552.8,242.3z" fill="#000000"/>
		</g>
		<g>
			<path class="st0" d="M442.2,617.8c0,0,160.1-24.4,187.4-187.8c27.3-163.5-207.8-267.1-207.8-267.1s25,112,40,238.6     C476.9,528.1,442.2,617.8,442.2,617.8z" fill="#000000"/>
			<path class="st1" d="M444.3,615.8c25.2-5.6,49.6-15.4,71.8-28.4c11.5-6.6,22.5-14.2,32.5-22.9c5.2-4.1,10.1-8.6,14.6-13.4     c4.7-4.6,9.3-9.3,13.3-14.6c8.7-9.9,15.5-21.3,22.2-32.5c5.8-11.8,11.6-23.5,15.2-36.2c4.9-12.2,6.2-25.5,9.3-38.1l1.2-19.5     l0.6-10.1c-0.2-3.2-0.8-6.3-1.2-9.4c-0.9-6.2-1.5-12.4-2.6-18.6l-5.7-18.4c-1.5-6.3-4.8-11.9-7.5-17.8     c-3.1-5.7-5.1-11.9-9.1-17.1c-7-11-14.2-21.7-23-31.5c-7.9-10.4-17.9-19-27-28.4c-19.4-17.6-40.5-33.6-62.6-47.9     c-22.1-14.2-45.7-27-69.2-37.5l16.2-13.3c17.7,75.4,31.4,151.3,38.6,228.3c1,9.6,1.8,19.7,2.4,29c0.8,9.5,0.8,19.7,1.1,29.5     c0.1,19.6-1.2,39.1-3.5,58.5C467.4,543.4,459.1,580.9,444.3,615.8z M441,617.3c9.7-37,13.8-75.2,15.3-112.9     c0.7-18.9-0.3-37.8-1-56.7c-0.9-9.4-1.2-18.4-2.5-28c-1.2-9.8-2.3-18.8-3.8-28.3c-11.9-75.5-24.2-151.1-38.6-226l-4.5-23.4     l20.7,10.1c25.2,12.3,48.5,26.1,71.1,41.7c22.5,15.6,44,32.7,63.9,51.8c9.4,10.1,19.5,19.5,27.7,30.8c9,10.6,16.4,22.3,23.6,34.2     c4,5.7,6.2,12.5,9.3,18.7c2.8,6.4,6.1,12.6,7.6,19.5l5.7,20.2c1.1,7,1.6,14.3,2.3,21.4c0.3,3.5,0.8,7.2,0.9,10.6l-0.9,10     c-0.7,7-1,12.8-1.9,20.7c-3.6,13.3-5.6,27-11.2,39.7c-4.3,13.1-10.8,25.3-17.3,37.4c-7.5,11.5-15,23.1-24.4,33.1     c-4.3,5.4-9.3,10.1-14.3,14.7c-4.9,4.8-10,9.3-15.6,13.3c-10.6,8.5-22.2,15.9-34.2,22.2c-23.9,12.8-49.6,22.2-76.4,26.8l-1.9,0.3     L441,617.3z" fill="#000000"/>
		</g>
	</g>
	<g>
		<g>
			<path class="st2" d="M449.5,352.2c0,0-31.4-34.1-79.7-21.1s-47.2,90.4-47.2,90.4s27.6-20.9,60.4-40.9     C415.9,360.7,449.5,352.2,449.5,352.2z" fill="#000000"/>
			<path class="st1" d="M446.2,351.3c-11.6-9.3-25.8-15.5-40.1-17.4c-7.7-1.1-15.4-0.9-22.9,0.6c-3.8,0.5-7.4,1.8-11,2.7     c-2.3,1.1-7.9,2.8-10,4.7c-2.6,1.7-5.2,3.6-7.7,6.3c-2.6,2.3-4.5,5.4-6.6,8.3c-3.9,6.1-6.6,13-8.8,20.1c-2,7.2-3.5,14.7-4.3,22.3     c-0.8,7.5-1.1,15.6-0.7,22.6l-18.4-9c19.2-15.3,39.5-29.7,61-41.7c11.1-5.8,23.4-10.6,35.3-13.9     C423.2,353.8,434.6,351.9,446.2,351.3z M449.8,353.4c-10.8,6-21.2,12.2-31.4,18.3c-10.4,6.2-19.7,12.4-29.4,19.2     c-18.6,15.2-38.6,27.9-59.5,39.8L310,441.8l1.2-20c0.5-9.3,1.7-17.5,3.5-26.1c1.8-8.5,4.1-16.9,7.3-25.1     c6.6-16.2,16.5-32.4,34.5-41.3c4.7-2.5,7.3-2.7,12.6-4.4c4.3-0.6,8.6-1.6,13-1.6c8.7-0.6,17.4,0.3,25.7,2.4     c16.6,4.3,31.5,13.3,42.7,25.7l1.1,1.2L449.8,353.4z" fill="#000000"/>
		</g>
		<g>
			<path class="st2" d="M445.9,358.3c0,0-27.8-40.2-76.1-27.1c-48.3,13-47.2,90.4-47.2,90.4s27.6-20.9,60.4-40.9     C415.9,360.7,445.9,358.3,445.9,358.3z" fill="#000000"/>
			<path class="st1" d="M442.8,356.9c-10.2-10.9-23.5-18.9-37.4-21.8c-7.4-1.6-15.1-1.8-22.5-0.5c-3.7,0.3-7.3,1.7-10.9,2.6     c-2.2,1.1-7.9,2.8-9.9,4.7c-2.6,1.6-5.2,3.7-7.7,6.3c-2.5,2.4-4.5,5.4-6.5,8.3c-3.9,6-6.5,13-8.8,20.1c-2,7.2-3.4,14.7-4.3,22.3     c-0.8,7.5-1.1,15.5-0.6,22.5l-18.7-9.1c18.6-14.7,38.1-28.5,58.9-40c5.4-3.3,10.7-5.2,16.9-7.7c5.8-2.3,11.8-3.9,17.8-5.3     C420.3,356.8,431.6,355.9,442.8,356.9z M446,359.5c-11,4.2-21.4,9.3-31.2,14.7c-5,2.6-9.7,5.7-14.4,8.5     c-4.2,2.8-9.3,6.2-13.6,9.5c-17.9,14.7-37,27.1-57.2,38.5l-20,11.4l1.3-20.5c0.6-9.3,1.7-17.5,3.5-26s4.1-16.8,7.3-25     c6.6-16.2,16.5-32.4,34.4-41.3c4.8-2.6,7.3-2.7,12.6-4.5c4.4-0.6,8.6-1.6,13.1-1.5c8.8-0.5,17.6,0.8,25.8,3.7     c16.4,5.7,30,16.8,39.3,30.6l0.9,1.3L446,359.5z" fill="#000000"/>
		</g>
		<g>
			<path class="st2" d="M408,466c0,0,43.5-4.5,54.4-53.3s-58.2-83.8-58.2-83.8s5.7,34.1,8.2,72.5S408,466,408,466z" fill="#000000"/>
			<path class="st1" d="M410.2,464c14.1-3.8,26.9-12.3,34.9-23.8c4.2-6.1,7.3-12.9,9.3-19.9c0.7-3.4,1.9-7.6,2-10.4     c0.4-4,0.7-8.1,0-10.8c-0.6-6.2-3.3-13.1-7-18.9c-3.5-6.1-8.5-11.4-13.7-16.5c-5.3-5-11.3-9.5-17.4-13.7c-6.1-4-13-7.9-19.2-10.7     l16.7-12.3c4.4,22.9,7.5,46.2,8,69.6c0.4,11.7-0.9,24-3.1,35.7C418.4,443.2,415.1,453.9,410.2,464z M406.8,465.7     c-0.3-11.6-1.2-23.1-2.3-34.2c-1.1-11.3-2.3-22-4.3-33.2c-4.7-22.3-6.7-44.6-7.4-67.4l-0.7-22.9l17.4,10.6     c7.8,4.7,14.3,9.4,20.9,14.8c6.5,5.4,12.8,11.1,18.4,17.5c5.5,6.5,10.9,13.4,14.6,21.5c4,8,6.7,16.5,6.8,26.1     c0.3,5.2-0.4,9-1.2,12.9c-0.9,5.1-2.5,8.4-4,12.6c-3.3,7.9-7.9,15.2-13.5,21.5c-11.4,12.6-27.3,20.2-43.4,21.8l-1.3,0.1V465.7z" fill="#000000"/>
		</g>
		<g>
			<path class="st2" d="M327.4,379.3c0,0-18.4,45.2,19.8,77.5c38.1,32.3,101.2-12.6,101.2-12.6s-32.9-10.8-68-26.4     C345.3,402.1,327.4,379.3,327.4,379.3z" fill="#000000"/>
			<path class="st1" d="M328,382.6c-3.5,14.4-2.8,29.9,2.6,43.1c2.9,7,7,13.4,12.3,18.6c2.4,2.9,5.6,4.9,8.3,7.4     c2.3,1.1,6.8,4.9,9.5,5.4c5.4,2.6,13.2,3.4,20.1,3.2c7.1-0.2,14.4-2.1,21.4-4.2c7.1-2.4,14-5.5,20.7-9.1     c6.6-3.6,13.4-7.9,18.8-12.3l3.1,20.6c-22.5-6.8-44.8-15-65.9-25.5c-10.6-5.1-21.4-12.7-30.3-20.8     C340.5,401.2,333.4,392.5,328,382.6z M328.4,378.5c9.5,6.7,19.5,12.3,29.4,17.3c10.2,5.1,19.6,9,30.5,12.5     c22.1,6.3,43,14.9,63.7,24.8l20.8,10l-17.7,10.6c-8,4.8-15.3,8.5-23.4,11.9c-8,3.3-16.1,6.2-24.7,8.2c-17,3.8-35.9,5-53.4-4.6     c-5-2.4-6.4-4.5-10.9-7.7c-3-3.3-6.3-6.2-8.7-9.9c-5.4-6.9-9.3-15-11.6-23.3c-4.5-16.8-2.8-34.3,3.7-49.5l0.6-1.4L328.4,378.5z" fill="#000000"/>
		</g>
		<g>
			<path class="st2" d="M294.7,281.8c0,0-89.5,53.5-59.8,163.7s206.6,107.8,206.6,107.8s-47.7-63-93.4-138     C302.5,340.3,294.7,281.8,294.7,281.8z" fill="#000000"/>
			<path class="st1" d="M293.8,284.2c-28.3,20.8-49.6,51.5-56.7,85.4c-1.8,8.6-3,17.4-2.9,26.1c-0.4,8.8,0.7,17.5,1.9,26.2     c1.6,8.4,3.6,17.7,6.2,25.1c3.3,8.5,6.4,17.3,11.4,23.6c3.8,7.2,10.3,13.2,15.8,19.6c6.7,5.3,12.7,11.5,20.4,15.7     c7.2,4.8,14.9,8.8,22.9,12.3c7.9,3.7,16.2,6.5,24.5,9.3c16.7,5.3,34.1,8.7,51.6,11.2c17.4,2.3,35.5,3.4,52.5,3.1l-9.2,18.8     c-32.5-41.2-62.5-83.9-88-129.6c-13-22.7-25.3-46.6-33.7-71.7C301.8,334.9,295.6,309.8,293.8,284.2z M296,281.6     c7.2,24.8,17.5,48.5,28.8,71.3c5.6,11.5,12.3,22.4,18.4,33.4c6.3,10.8,13.3,21.7,20.5,32.3l87.1,127.6l13.4,19.6l-22.6-0.7     c-19.3-0.6-37.5-2.7-56-6.1c-18.3-3.5-36.6-7.8-54.3-14.2c-8.8-3.3-17.6-6.7-26-11.1c-8.5-4.2-16.8-8.9-24.5-14.5     c-8.1-4.9-14.9-12.1-22-18.4c-6.1-7.5-12.9-14.3-17.4-23.5c-5.7-8.7-8.2-17.2-11.2-25.8c-3.1-9.8-4.1-18.6-5.5-28     c-0.8-9.4-1.4-18.8-0.5-28.2c0.4-9.4,2.2-18.7,4.6-27.7c9.8-36.3,34.2-67.3,65.2-86.9l1.4-0.9L296,281.6z" fill="#000000"/>
		</g>
		<g>
			<path class="st0" d="M296.9,271.8c0,0-91.7,63.5-62,173.7s206.6,107.8,206.6,107.8s-47.7-63-93.4-138     C302.5,340.3,296.9,271.8,296.9,271.8z" fill="#000000"/>
			<path class="st1" d="M295.9,274.5c-27.6,22.9-48.5,54.3-57.1,88.4c-2.4,8.7-3.3,17.7-4.3,26.6c0,9-0.4,17.9,1.1,26.8     c0.5,9,3.4,17.6,5.2,26.3c3,7,5.8,18,10.6,24.3l6.7,10.6l8.8,9.7c5.8,6.4,13.1,11.6,20.1,16.8c7.5,4.7,14.9,9.4,23.2,12.9     c7.8,4.1,16.5,6.7,24.8,9.8c17.1,5.3,34.8,9.2,52.6,11.7c17.8,2.4,36.3,3.5,53.6,3.2l-9.2,18.8c-33.4-42.3-64.2-86.3-90.4-133.4     c-6.9-12-12.8-23.6-18.7-36.5c-5.7-12.4-10.1-25.5-14.2-38.5C301.3,326.8,296.3,300.8,295.9,274.5z M298.2,271.7     c5.9,25.9,15.1,50.8,25.4,74.9c5.3,12,11.5,23.5,17.5,35c6,11,13.1,22.7,20.3,33.3c29.8,43.7,59.2,88,89.4,131.4l13.6,19.5     l-22.8-0.7c-19.7-0.6-38.3-2.8-57.2-6.3c-18.7-3.5-37.3-8.2-55.4-14.7c-35.6-13.5-71.1-34.6-90.2-71.1c-5.5-9.2-6.8-16.9-10.4-27     c-1.6-9.5-4-18.8-4.1-28.5c-1-9.6-0.2-19.2,0.4-28.7c1.5-9.5,3-18.9,6-28c11.4-36.5,35.2-68,65.5-89.9l1.5-1.1L298.2,271.7z" fill="#000000"/>
		</g>
		<g>
			<path class="st0" d="M542.9,358.4c0,0-10.2-99.5-121.6-124.4S229.9,366.9,229.9,366.9s78-13,165.6-18.6     C483.1,342.7,542.9,358.4,542.9,358.4z" fill="#000000"/>
			<path class="st1" d="M541.1,356.6c-7-34.3-26.2-66.2-53.7-87c-7.1-5.1-14.3-10.3-22.3-13.9c-7.7-4.3-16-7-24.2-10.1     c-8.3-2.2-17.3-5.1-25.2-5.8c-9.1-1.2-18.1-2.1-26-0.7c-8.1,0-16.4,3.2-24.6,5c-7.8,3.6-16,6-23.2,10.9     c-7.6,4.1-14.6,9.2-21.4,14.5c-6.8,5.3-13.2,11.3-19.5,17.4c-12.4,12.3-23.5,26.1-33.7,40.4c-10.1,14.3-19.4,29.8-27,44.9     L228,355.4c52.1-9.9,104.5-16.6,157.5-18c26.4-1,53.5-0.8,79.9,2.7C491.1,343.1,516.6,348.1,541.1,356.6z M542.6,359.6     c-26-3-52.2-3.8-78.1-3.8c-26,0.5-51.5,1.7-77.4,4.6c-51.7,6.1-103.7,11.5-155.3,18l-23.5,3l11.2-19.8     c9.5-16.8,19.8-31.9,31.3-46.6c11.5-14.6,23.7-28.7,37.6-41.4c7-6.3,14.1-12.4,21.8-17.9s15.5-10.7,24.1-15     c8.1-5,17.5-7.5,26.4-11c9.5-1.8,18.5-4.9,28.7-4.6c10.3-1,19.2,0.4,28,1.9c10.1,1.5,18.3,4.9,27.3,7.8     c8.6,3.7,17.3,7.1,25.2,12.1c8.3,4.3,15.7,10.2,22.8,16.1c28.5,24.1,46.7,59,51.5,95.2l0.2,1.6L542.6,359.6z" fill="#000000"/>
		</g>
		<g>
			<path class="st0" d="M345,542.4c0,0,103.3,42,177-45.1s-28.9-231.2-28.9-231.2s-24.6,75.1-60.3,155.3     C397.1,501.5,345,542.4,345,542.4z" fill="#000000"/>
			<path class="st1" d="M347.8,541.7c34.2,10.5,71.8,10.6,104.8-1.4c8.5-2.9,16.4-7.2,24.2-11.5c7.4-5,14.9-9.9,21.4-16.1     c7.1-5.5,12.4-12.9,18.6-19.2c3.9-6.6,11.5-15,13.7-22.6l4.8-11.6l2.9-12.7c1.8-8.4,2.1-17.3,2.2-26c-0.3-8.8-0.9-17.5-2.7-26.3     c-1-8.8-4-17.3-6.1-25.9c-5.3-17.1-12.2-33.7-20.3-49.8c-8.1-15.9-17.7-31.7-27.8-45.8l20.7-3.2c-15.7,51.1-34.1,101-57.7,149     c-2.8,6-6.1,12.3-9,18c-2.9,5.8-6.7,12-10,17.9c-7,11.7-15,22.7-23.4,33.3C387.8,508.3,369.3,526.9,347.8,541.7z M344.3,541.4     c18.1-19.1,33.4-40.6,47.1-62.5c13.3-22.5,24.7-44.9,34.2-69.5c18.8-49,38.3-98,56.5-147l8.3-22.4l12.4,19.2     c10.7,16.6,19.5,33,27.3,50.5c7.7,17.4,14.4,35.2,19.4,53.8c9.2,36.8,12.2,77.9-6.8,114.3c-4.2,9.9-10,15.2-16.1,24     c-6.9,6.6-13.1,14.1-21,19.6c-7.3,6.3-15.6,11.2-23.8,16c-8.6,4.2-17.2,8.3-26.4,10.9c-36.5,11.1-75.9,8.6-110.8-4.8l-1.8-0.7     L344.3,541.4z" fill="#000000"/>
		</g>
	</g>
	<g>
		<g>
			<path class="st2" d="M444.9,400.5c0,0-3.4-30.3-34-42.3c-30.7-11.9-60.4,29.6-60.4,29.6s22.8-0.3,48,1.9     C423.8,391.9,444.9,400.5,444.9,400.5z" fill="#000000"/>
			<path class="st1" d="M442,396.8c-3-8.5-7.7-16.4-14-22.1c-3.7-3.3-7.8-6-12.2-7.9c-2.1-1.1-4.5-1.7-6.8-2.5     c-1.1-0.1-5.3-1.5-6.8-1.1c-3.3-0.3-8.1,0.9-12,2.5c-4.1,1.7-7.9,4.3-11.7,7.2c-3.7,3-7.1,6.4-10.3,10.1     c-3.1,3.6-6.3,7.9-8.4,11.5l-9.5-18.1c16.3-1.3,32.9-1.2,49.1,1.6c8.2,1.5,16.9,4.3,24.4,7.8C430.3,388.6,436.4,392.4,442,396.8z      M446.3,401.7l-26.1-0.3c-8-0.2-15.1-0.1-22.8,0c-15.7,1.5-31.1,0.3-46.7-2.2l-22.1-3.6l12.6-14.5c4.3-4.9,8.2-8.8,12.8-12.7     c4.5-3.8,9.2-7.4,14.3-10.5c10.4-6,22.5-10.9,36.7-8.2c3.9,0.7,4.8,1.4,8.8,2.9c2.6,1.5,5.3,2.8,7.7,4.6     c4.9,3.3,9.3,7.4,12.8,12.1c7.1,9.2,11.2,20.1,12,31.2V401.7z" fill="#000000"/>
		</g>
		<g>
			<path class="st2" d="M440.6,402.3c0,0,0.9-32.1-29.7-44.1c-30.7-11.9-60.4,29.6-60.4,29.6s22.8-0.3,48,1.9     C423.8,391.9,440.6,402.3,440.6,402.3z" fill="#000000"/>
			<path class="st1" d="M438.3,398.3c-1.8-8.8-5.4-17.3-11.2-23.3c-3.3-3.5-7.3-6.3-11.6-8.3c-2-1.1-4.4-1.7-6.6-2.5     c-1.1,0-5.4-1.5-6.7-1.1c-7.4-0.3-16.4,3.9-23.5,9.7c-3.6,3-7.1,6.4-10.3,10.1c-3.1,3.6-6.3,7.8-8.3,11.5l-9.6-18.4     c15.7-1.2,31.7-1,47.3,1.8c4.3,0.5,7.7,1.8,12.2,3.1c4.1,1.2,7.9,3.1,11.7,4.9C427.8,389.1,433.4,393.3,438.3,398.3z M440,403.4     c-7.9-1.2-15.5-1.8-22.8-2.1l-10.8-0.3l-10.7,0.3c-15.2,1.5-29.9,0.5-45-1.9l-22.7-3.6l13.1-14.8c4.3-4.9,8.2-8.7,12.8-12.6     c4.5-3.8,9.2-7.4,14.3-10.5c10.4-6,22.5-10.9,36.6-8.3c4,0.7,4.8,1.5,8.8,2.8c2.7,1.5,5.3,2.8,7.7,4.7c4.9,3.4,9.2,7.9,12.4,12.8     c6.4,9.9,9,21.4,8.2,32.5l-0.1,1.3L440,403.4z" fill="#000000"/>
		</g>
		<g>
			<path class="st2" d="M378.5,444.6c0,0,24.9,14.6,49.7-7s1.9-67.2,1.9-67.2s-10.3,20.4-24,41.7     C392.3,433.4,378.5,444.6,378.5,444.6z" fill="#000000"/>
			<path class="st1" d="M381.9,444.3c8.6,2.7,18,2.7,25.9-0.3c4.4-1.7,8.4-4.1,12-7.1c1.6-1.5,3.8-3.4,4.6-4.7     c1.8-2,3.4-4.1,3.8-5.6c1.7-3.1,2.8-7.6,2.9-11.8c0.3-4.3-0.3-8.9-1.2-13.3c-0.9-4.5-2.4-9-4.1-13.4c-1.8-4.3-4-9-6.2-12.4h20.7     c-6.1,14.3-13.5,28.1-23.1,40.4c-4.6,6.2-10.7,12.3-16.9,17.3C394.8,437.8,388.6,441.5,381.9,444.3z M376.9,445.1l11.1-22     c3.4-6.7,6.4-12.9,9.4-19.7c5.6-13.9,13.3-26.3,22.3-38.3l13.7-18.3l7,18.3c2.3,6,3.8,11.1,5.1,16.8c1.2,5.6,2.3,11.2,2.7,17.1     c0.3,5.9,0.3,11.8-1,17.9c-1.2,6.1-3.2,11.9-7.4,17.5c-2.2,3.2-4.1,4.8-6,6.5c-2.8,2.6-4.9,3.5-7.5,5.2     c-5.1,2.9-10.6,4.9-16.3,5.9c-11.4,2-22.9-0.6-32.1-6.4L376.9,445.1z" fill="#000000"/>
		</g>
		<g>
			<path class="st2" d="M369.6,367.2c0,0-27.4,16.8-19.8,48.8c7.6,32,58.6,32.8,58.6,32.8s-13.2-18.5-25.8-40.6     C370.1,386.3,369.6,367.2,369.6,367.2z" fill="#000000"/>
			<path class="st1" d="M367.7,370.7c-6.6,6.3-11.5,14.4-13.2,22.7c-1,4.7-1.1,9.5-0.2,14.1c0.2,2.3,1.2,4.6,1.7,6.8     c0.7,0.9,1.9,5.3,3,6.1c4,6.3,12.5,11.2,21.4,13.7c4.5,1.3,9.3,2.2,14.1,2.7c4.7,0.5,10,0.7,14.2,0.3l-9.7,18.4     c-9.8-12.2-18.7-25.3-25.2-39.6c-3.4-7-6-15.9-7.1-24C365.8,384.9,366.2,377.7,367.7,370.7z M370.8,367.1     c3.4,7.1,7.2,13.7,11,19.8c3.9,6.4,7.6,11.5,12.2,17.4c9.8,11.5,17.3,24.1,23.9,37.7l10,20.8l-19.7-2.4     c-6.5-0.8-11.8-1.8-17.6-3.3c-5.7-1.5-11.3-3.4-16.7-5.8c-10.8-5.1-21.7-12.2-27.6-25.2c-1.8-3.7-1.5-4.8-2.7-8.8     c-0.3-3-0.8-6-0.6-9c0-6,1.3-12,3.5-17.4c4.6-10.9,12.8-19.4,22.4-24.8l1.1-0.6L370.8,367.1z" fill="#000000"/>
		</g>
		<g>
			<path class="st2" d="M390.3,302.7c0,0-68.4-6.6-95.6,63.4C267.4,436.2,362.1,504,362.1,504s-0.7-52.1,4.4-109.6     C371.6,336.7,390.3,302.7,390.3,302.7z" fill="#000000"/>
			<path class="st1" d="M387.9,304.1c-22.7,0.5-45.4,8.7-61.6,23.7c-4.2,3.9-8.1,8-11.3,12.7c-3.5,4.5-6.2,9.5-8.8,14.5     c-2.3,5-4.8,10.8-6.1,15.4c-1.5,5.8-3.2,11.8-2.9,16.6c-0.7,4.9,0.5,10.5,0.9,15.9c1.5,5.3,2.3,10.7,4.7,15.7     c3.8,10.4,10.1,19.9,16.7,29.1c6.8,9.1,14.6,17.5,22.9,25.4c8.3,7.8,17.6,15.3,26.5,21.3l-18.6,9.7c-1.8-34.7-0.9-69.1,3.8-103.5     c2.2-17.2,5.7-34.9,11.6-51.5C371.1,333.2,378.3,317.9,387.9,304.1z M391.4,303.3c-4.9,16.3-7.9,33-10.3,49.5     c-1.2,8.2-1.6,16.6-2.4,24.8c-0.6,8-0.8,16.6-1.1,25c-0.7,33.8-2.2,67.7-3.7,101.3l-1,23.9l-17.6-14.1     c-10.2-8.3-19-16.6-27.5-25.9c-8.4-9.2-16.4-18.8-23.3-29.4c-6.7-10.7-13.1-21.7-16.8-34.2c-2.4-5.9-3.1-12.6-4.4-18.9     c-0.3-6.6-1.2-12.9,0.1-19.9c0.5-7.2,2.6-12.7,4.4-18.4c2.4-6.8,5.3-11.7,8.4-17.4c3.4-5.3,6.8-10.6,11.1-15.3     c4-4.8,8.7-9.1,13.7-12.9c19.9-15.5,45.3-22,69.4-20l1.5,0.1L391.4,303.3z" fill="#000000"/>
		</g>
		<g>
			<path class="st0" d="M395.3,298.2c0,0-73.4-2.1-100.7,67.9C267.3,436.2,362,504,362,504s-0.7-52.1,4.4-109.6     C371.6,336.7,395.3,298.2,395.3,298.2z" fill="#000000"/>
			<path class="st1" d="M392.7,299.8c-23.1,1.9-45.7,10.6-62.9,25.2c-9,7.5-16.4,16.7-21.7,27c-3.1,4.9-4.8,10.5-7.1,15.8     c-0.9,4.4-3.8,11.9-3.6,16.7l-0.4,7.8l1,8.3c0.6,5.5,2.4,10.9,4.2,16.2c3.8,10.6,9.9,20.5,16.5,29.9c7,9.3,14.8,18,23.3,26     c8.4,8,17.9,15.6,27,21.9l-18.5,9.7c-1.8-35.7-0.9-71.1,4-106.5c1.1-9.2,2.8-17.6,5-26.9c2.1-8.9,5.2-17.6,8.4-26.1     C374,328.6,382.1,313.4,392.7,299.8z M396.4,298.9c-6.1,16.5-10.2,33.4-13.5,50.1c-1.6,8.4-2.4,16.9-3.5,25.3     c-0.8,7.9-1.3,17-1.6,25.3c-0.8,34.7-2.5,69.6-4,104.2l-1,23.8l-17.5-14.1c-10.5-8.4-19.4-17-28.1-26.4     c-8.6-9.4-16.6-19.4-23.7-30.1c-13.6-21.6-24.3-47.2-19.8-75.2c0.8-7.5,3.1-11.5,5.3-18.7c3-5.7,5.4-11.7,9.3-16.9     c6.8-10.9,15.9-20.4,26.3-27.8c20.8-14.8,46-21.9,70.7-21.4h1.8L396.4,298.9z" fill="#000000"/>
		</g>
		<g>
			<path class="st0" d="M492,440.2c0,0,33.4-56.7-16-113.4c-49.4-56.7-153.4-4.2-153.4-4.2s46.4,23.6,95.1,54.8     C466.4,408.5,492,440.2,492,440.2z" fill="#000000"/>
			<path class="st1" d="M491.7,437.5c9-20.8,10.8-44.7,4.2-65.7c-1.8-5.4-3.7-10.8-6.5-15.7c-2.4-5.1-5.8-9.8-9-14.4     c-3.5-4.2-7.3-9.3-11-12.4c-4.4-4.2-8.9-8.1-13.3-10.2c-4-2.9-9.6-4.4-14.5-6.5c-5.4-1-10.5-2.9-16.1-3     c-10.9-1.4-22.3-0.2-33.4,1.3c-11.2,1.8-22.2,4.9-33,8.5c-10.7,3.7-21.6,8.5-31.1,13.5v-20.8c32,14.7,62.4,31.6,91,52     c14.4,10,28.5,21.5,40.8,34.1C471.8,410.1,482.7,423.1,491.7,437.5z M491.1,441c-13.3-11-27.3-21.1-41.3-30.7     c-14.3-9.4-28.5-18-43.4-26.3c-29.9-16.5-59.6-33.9-89-51.1L296.9,321l20.5-8.9c12-5.2,23.4-9.1,35.6-12.3     c12-3.1,24.2-5.8,36.7-7c12.5-1,25.2-1.5,37.9,0.9c6.4,0.6,12.6,3,18.7,4.7c5.9,2.9,12,4.8,17.5,9.2c6.1,3.8,10.2,8.1,14.3,12.3     c5,5.1,7.8,10.1,11.5,15.3c3.1,5.5,6.4,10.8,8.6,16.7c2.6,5.6,4.2,11.8,5.7,17.8c5.5,24.4,1.1,50.1-10.8,71.2l-0.7,1.3L491.1,441     z" fill="#000000"/>
		</g>
		<g>
			<path class="st0" d="M315.2,460.6c0,0,38.4,62.6,111.5,45.2c73.1-17.5,74.9-133.9,74.9-133.9s-42.4,30.2-92.6,58.8     C358.8,459.2,315.2,460.6,315.2,460.6z" fill="#000000"/>
			<path class="st1" d="M318,461.8c14.2,18.2,33.9,32.3,55.6,38.3c11.2,3.1,22.9,4.1,34.4,2.6c5.8-0.2,11.3-2.1,17-3.1     c4.1-1.9,12-3.6,15.6-6.7c4.5-2.4,8.8-5.7,12.8-9.6c4.1-3.7,7.5-8.2,10.8-12.7c3.1-4.7,6.1-9.4,8.5-14.7c2.7-5,4.4-10.6,6.6-15.9     c3.6-11,6.3-22.3,8.1-33.9c1.7-11.4,2.6-23.5,2.6-34.5l18.6,9.8c-28.1,21.6-57.5,40.9-89,56.8c-15.6,8.3-33.3,15.2-50.7,19.1     C352.1,461.2,335,463.1,318,461.8z M315.2,459.3c16.9-4.1,33-10.2,48.5-16.9c7.8-3.4,15.1-7.6,22.5-11.4c3.6-2.1,7-3.9,10.7-6.3     l10.8-6.8c28.7-18.9,58.1-37.3,87.1-55.6l20.2-12.7l-1.6,22.5c-1,13.4-2.9,25.5-5.8,38c-2.9,12.4-6.4,24.6-11.2,36.5     c-9.9,23.5-24.8,46.8-50.2,59.1c-6.6,3.8-11.2,4-18.4,6.4c-6.4,0.8-12.7,2.2-19.2,2c-12.8,0.6-25.8-1.5-37.7-5.9     c-24-8.8-43.8-26-56.8-46.9l-0.9-1.5L315.2,459.3z" fill="#000000"/>
		</g>
	</g>
</g>
<g>
	<g>
		<path class="st0" d="M1936.7,405.4v-11.6h25.6c6.9,0,10.3-3.4,10.3-10.3V241.3c0-6.9-3.4-10.3-10.3-10.3h-25.6v-11.6l66.1-2.5v44    l2.1,0.8c12.5-30.4,29.6-45.7,51.3-45.7c5.1,0,9.6,0.9,13.6,2.6s7.1,3.9,9.3,6.5s4.1,5.7,5.5,9.1s2.3,6.6,2.8,9.5    c0.4,2.9,0.7,5.8,0.7,8.7c0,7.2-2.2,13.7-6.5,19.5c-4.3,5.9-9.7,8.8-16.2,8.8c-6.3,0-11.3-1.9-14.8-5.7c-3.5-3.8-5.3-8.5-5.3-14.2    c0-5.2,2.3-10.1,6.9-14.7c3.8-3.4,5.7-6.8,5.7-10.1c0-4.5-2.8-6.8-8.3-6.8c-7.9,0-15.4,4.7-22.7,14.2    c-7.3,9.4-13.1,21.3-17.5,35.7c-4.3,14.3-6.5,28.6-6.5,42.8v61.6c0,6.9,3.4,10.3,10.3,10.3h25.6v11.6L1936.7,405.4L1936.7,405.4z" fill="#000000"/>
		<path class="st0" d="M2312.3,408.7v-87h7.4c3.2,18.1,8.5,32.3,15.9,42.8c15.6,21.8,34.4,32.7,56.6,32.7c11.2,0,20.7-2.9,28.5-8.8    c7.9-5.9,11.8-14,11.8-24.3c0-4.3-1.3-8.3-3.8-12.2c-2.6-3.9-5.5-7.1-9-9.8c-3.4-2.7-8.2-5.4-14.2-8.3c-6-2.8-11.2-5-15.6-6.6    c-4.4-1.6-10.1-3.6-17.2-6c-6.4-2-11.6-3.9-15.7-5.6c-4.1-1.7-8.8-3.8-13.9-6.4c-5.2-2.5-9.4-5.3-12.7-8.3s-6.4-6.4-9.4-10.3    s-5.2-8.5-6.6-13.7c-1.4-5.2-2.2-11-2.2-17.4c0-12.3,5-22.6,14.9-30.9s21.4-12.5,34.3-12.5c13.1,0,24.8,3,35.1,8.9    c6.3,3.7,12.7,8.3,19,13.8h2.1l12.6-22.7h5.8v72.8h-8.3c-1.1-6.3-3.4-13.4-6.8-21.2c-3.4-7.8-7.1-13.7-11-17.9    c-7.4-7.9-14.6-13.5-21.4-16.9c-6.8-3.4-15.6-5.2-26.4-5.2c-9.2,0-17,2.2-23.2,6.5c-6.3,4.3-9.4,10.9-9.4,19.7    c0,3.6,0.7,7,2.1,10.1c1.4,3.1,3.6,6,6.6,8.7c3,2.6,5.9,5,8.8,6.9c2.9,1.9,6.7,4,11.6,6c4.9,2.1,8.9,3.7,12,4.9    c3.1,1.2,7.3,2.6,12.8,4.3c11.7,4.1,21,7.8,28,11.1c7,3.3,13.5,7.4,19.4,12.2c5.9,4.8,10.1,10.4,12.6,16.9    c2.5,6.4,3.8,14.2,3.8,23.3c0,14.9-5.3,27-15.9,36.4c-10.6,9.4-23.4,14.1-38.4,14.1c-15.3,0-28.7-3.5-40.1-10.5    c-9-5.6-15.6-10.7-20-15.1h-2.1l-11.8,25.6L2312.3,408.7L2312.3,408.7z" fill="#000000"/>
		<path class="st0" d="M2497.8,381.6c-16.1-18.1-24.1-41.2-24.1-69.1c0-28,8-51,24.1-69.1s37.2-27.2,63.6-27.2    c10.5,0,19.9,1.9,28.2,5.7c8.3,3.8,15.1,8.8,20.4,14.9c5.2,6.1,9.6,13.3,13.1,21.6c3.5,8.3,6,16.6,7.3,24.9    c1.4,8.3,2.1,16.8,2.1,25.5h-123.6v3.7c0,56.5,17.5,84.7,52.5,84.7c10.3,0,19.4-2,27.3-5.9c7.9-3.9,14.1-9.2,18.7-15.8    c4.6-6.6,8.1-13.4,10.5-20.4s4.1-14.4,5.1-22.2h12c-0.4,6.3-1.4,12.7-3,19.1s-4.2,13.1-8,20c-3.7,7-8.2,13.1-13.5,18.4    s-12.2,9.7-20.7,13.1s-17.9,5.2-28.4,5.2C2535,408.7,2513.8,399.7,2497.8,381.6z M2509.3,297.1h71.3c6.5,0,10.9-1.5,13.2-4.5    s3.5-7.2,3.5-12.6c0-5.7-0.5-11.2-1.7-16.7c-1.1-5.5-2.9-11.1-5.4-16.6c-2.5-5.6-6.2-10.1-11.2-13.6s-10.9-5.3-17.8-5.3    C2529.7,227.7,2512.3,250.9,2509.3,297.1z" fill="#000000"/>
		<path class="st0" d="M2256.4,243.3c-15.9-18-36.9-27-63-27.2l0,0c-0.1,0-0.2,0-0.3,0s-0.2,0-0.3,0l0,0c-26.1,0.1-47.1,9.2-63,27.2    c-16.1,18.1-24.1,41.2-24.1,69.1c0,28,8,51,24.1,69.1c15.9,18,36.9,27,63,27.2l0,0c0.1,0,0.2,0,0.3,0s0.2,0,0.3,0l0,0    c26.1-0.1,47.1-9.2,63-27.2c16.1-18.1,24.1-41.2,24.1-69.1C2280.5,284.5,2272.4,261.4,2256.4,243.3z M2193.1,397.2    c-34.8-0.1-52.2-28.4-52.2-84.7l0.4-15.3c3-46.2,20.3-69.3,51.8-69.4c31.5,0.1,48.8,23.3,51.8,69.4l0.4,15.3    C2245.3,368.8,2227.9,397,2193.1,397.2z" fill="#000000"/>
	</g>
	<g>
		<path d="M957.3,381.5c-15.6-18.2-23.4-41.2-23.4-69s7.8-50.8,23.4-69s34.9-27.3,57.9-27.3c25.1,0,44.3,12.5,57.7,37.6l1.2-0.4    v-117c0-7.4-1.7-12.8-5-16.1c-3.3-3.3-8.7-5-16.1-5h-42.4v-11.6l93.6-2.5v282.3c0,6.9,3.4,10.3,10.3,10.3h25.6v11.6H1074v-33.5    l-1.2-0.4c-14.7,24.8-34,37.2-57.7,37.2C992.2,408.7,972.9,399.7,957.3,381.5z M969.1,312.4c0,56.5,15.4,84.7,46.1,84.7    c15.6,0,29.3-8,41.1-24.1c11.8-16,17.8-36.3,17.8-60.7c0-24.4-5.9-44.6-17.8-60.7c-11.9-16-25.6-24.1-41.1-24.1    C984.5,227.7,969.1,255.9,969.1,312.4z" fill="#000000"/>
		<path d="M3156.4,381.5c-15.6-18.2-23.4-41.2-23.4-69s7.8-50.8,23.4-69c15.6-18.2,34.9-27.3,57.9-27.3c25.1,0,44.3,12.5,57.7,37.6    l1.2-0.4v-117c0-7.4-1.7-12.8-5-16.1c-3.3-3.3-8.7-5-16.1-5h-42.4v-11.6l93.6-2.5v282.3c0,6.9,3.4,10.3,10.3,10.3h25.6v11.6h-66.1    v-33.5l-1.2-0.4c-14.7,24.8-34,37.2-57.7,37.2C3191.2,408.7,3171.9,399.7,3156.4,381.5z M3168.1,312.4c0,56.5,15.4,84.7,46.1,84.7    c15.6,0,29.3-8,41.1-24.1c11.8-16,17.8-36.3,17.8-60.7c0-24.4-5.9-44.6-17.8-60.7c-11.9-16-25.6-24.1-41.1-24.1    C3183.5,227.7,3168.1,255.9,3168.1,312.4z" fill="#000000"/>
		<path d="M1139.6,231v-11.6l66.1-2.5v141.4c0,11.6,2,20.7,5.9,27.3c3.9,6.6,11.2,9.9,21.8,9.9c7.6,0,14.4-2.2,20.5-6.7    s12.3-10.7,18.8-18.7c4.4-5.2,8.5-12.8,12.4-22.7c3.9-9.9,5.8-18.9,5.8-27.1v-78.9c0-6.9-3.4-10.3-10.3-10.3H1255v-11.6l66.1-2.5    v166.6c0,6.9,3.4,10.3,10.3,10.3h25.6v11.6h-66.1V364l-1.7-1c-6.6,12.5-15.3,23.3-26.1,32.3c-10.8,9-21.9,13.5-33.4,13.5    c-11.6,0-20.6-1.7-27.1-5c-9.5-4.8-16.4-11.9-20.7-21.1c-4.3-9.2-6.4-19.1-6.4-29.8V241.3c0-6.9-3.4-10.3-10.3-10.3L1139.6,231    L1139.6,231z" fill="#000000"/>
		<path d="M1357.9,231v-11.6c9.2-1.2,17.1-4.3,23.6-9.1c6.5-4.8,11.4-11.3,14.9-19.4c3.4-8.1,5.9-16.9,7.3-26.2    c1.4-9.4,2.2-20,2.2-32h18.2v86.8h59.1v11.6h-59.1v135.2c0,10.1,1.8,17.5,5.3,22.2c3.5,4.8,10.3,7.1,20.4,7.1    c12.3,0,21.9-4.5,28.8-13.5c7-9,10.4-20.1,10.4-33.4v-46.6h9.9v50c0,16.8-5,30.5-14.9,40.9c-9.9,10.5-24.7,15.7-44.2,15.7    c-12.3,0-23-3.8-32.1-11.4c-9.2-7.6-13.7-18-13.7-31.2V230.9L1357.9,231L1357.9,231z" fill="#000000"/>
		<path d="M1524.6,312.4c0-28.1,8.7-51.2,26.2-69.2s40.7-27.1,69.6-27.1c8.4,0,16.1,1.2,22.9,3.5c6.9,2.3,12.5,5.3,16.7,8.9    c4.3,3.6,7.9,7.6,10.7,12.2c2.9,4.5,4.9,8.9,6.1,12.9c1.2,4.1,1.8,7.9,1.8,11.5c0,7.7-2.2,14.2-6.5,19.3    c-4.3,5.2-10.2,7.7-17.7,7.7c-5.4,0-9.9-1.7-13.5-5c-3.7-3.3-5.5-7.6-5.5-12.8c0-7.7,3-14.5,8.9-20.5c4.4-4.5,6.6-8.7,6.6-12.6    c0-1-0.2-2-0.6-3c-0.4-1-1.3-2.2-2.7-3.5s-3.1-2.5-5.3-3.5c-2.1-1-5.2-1.9-9.1-2.6c-3.9-0.7-8.4-1-13.3-1c-8.5,0-16.2,1.5-23,4.7    c-6.8,3.1-12.5,7.3-17.2,12.5c-4.6,5.2-8.4,11.5-11.5,18.8c-3,7.3-5.2,15-6.6,23c-1.4,8.1-2.1,16.6-2.1,25.7    c0,56.5,17.5,84.7,52.5,84.7c10.3,0,19.4-2,27.3-5.9c7.9-3.9,14.1-9.2,18.7-15.8c4.6-6.6,8.1-13.4,10.5-20.4s4.1-14.4,5.1-22.2h12    c-0.4,6.3-1.4,12.7-3,19.1s-4.2,13.1-8,20c-3.7,7-8.2,13.1-13.5,18.4s-12.2,9.7-20.7,13.1s-17.9,5.2-28.4,5.2    c-26.3,0-47.5-9.1-63.5-27.2C1532.6,363.5,1524.6,340.4,1524.6,312.4z" fill="#000000"/>
		<path d="M1696.2,405.4v-11.6h25.6c6.9,0,10.3-3.4,10.3-10.3V125.6c0-6.9-3.4-10.3-10.3-10.3h-25.6v-11.6l66.1-2.5v157.5l1.7,1    c18.5-29.1,38.2-43.6,59.3-43.6c11.6,0,20.6,1.7,27.1,5c9.6,4.8,16.9,12,21.9,21.5s7.4,19.3,7.4,29.3v111.6    c0,6.9,3.4,10.3,10.3,10.3h25.6v11.6h-102.1v-11.6h25.6c6.9,0,10.3-3.4,10.3-10.3v-117c0-11-2.5-20-7.3-26.9    c-4.9-6.9-12.8-10.3-23.7-10.3c-11.3,0-23.3,7.7-36,23.1c-7.3,8.8-14.1,19.6-20.3,32.2v98.8c0,6.9,3.4,10.3,10.3,10.3h25.6v11.6    h-101.8V405.4z" fill="#000000"/>
		<path d="M2965.5,381.6c-16.1-18.1-24.1-41.2-24.1-69.1c0-28,8-51,24.1-69.1s37.2-27.2,63.6-27.2c10.5,0,19.9,1.9,28.2,5.7    c8.3,3.8,15.1,8.8,20.4,14.9c5.2,6.1,9.6,13.3,13.1,21.6c3.5,8.3,6,16.6,7.3,24.9c1.4,8.3,2.1,16.8,2.1,25.5h-123.6v3.7    c0,56.5,17.5,84.7,52.5,84.7c10.3,0,19.4-2,27.3-5.9c7.9-3.9,14.1-9.2,18.7-15.8c4.6-6.6,8.1-13.4,10.5-20.4s4.1-14.4,5.1-22.2h12    c-0.4,6.3-1.4,12.7-3,19.1s-4.2,13.1-8,20c-3.7,7-8.2,13.1-13.5,18.4s-12.2,9.7-20.7,13.1s-17.9,5.2-28.4,5.2    C3002.7,408.7,2981.5,399.7,2965.5,381.6z M2977,297.1h71.3c6.5,0,10.9-1.5,13.2-4.5s3.5-7.2,3.5-12.6c0-5.7-0.5-11.2-1.7-16.7    c-1.1-5.5-2.9-11.1-5.4-16.6c-2.5-5.6-6.2-10.1-11.2-13.6s-10.9-5.3-17.8-5.3C2997.3,227.7,2980,250.9,2977,297.1z" fill="#000000"/>
		<g>
			<path d="M2918.2,393.9c-6.9,0-10.3-3.4-10.3-10.3c0,0-1.8-30.4-1.8-55.4c0-29.6-3.9-80.9-13.2-93.4c-4.6-6.1-7.8-9.2-9.9-10.3     c-1.4-1.2-2.9-2.3-4.5-3.3c-5.1-3.3-12.2-5-21.4-5c-16.6,0-32.3,14.5-46.8,43.6l-1.9-2.9v1c-1-5.2-2.5-10.2-4.5-15.2     c-3.9-9.5-9.7-16.7-17.3-21.5c-5.1-3.3-12.2-5-21.4-5c-16.6,0-32.3,14.5-46.8,43.6l-0.6-0.4v-0.5l-0.1-0.1v-36.1l-66.1,2.5v11.6     h25.6c6.9,0,10.3,3.4,10.3,10.3v136.5c0,6.9-3.4,10.3-10.3,10.3h-25.6v11.6h95.7v-11.6h-19.2c-6.9,0-10.3-3.4-10.3-10.3v-98.8     c0-0.1,0.1-0.2,0.1-0.2V283c4.7-11.9,9.8-22,15.3-30.4c10-15.4,19.5-23.1,28.4-23.1c8.6,0,14.8,3.4,18.7,10.3s5.8,15.8,5.8,26.9     v117c0,6.9-2.7,10.3-8.2,10.3h-10.1v11.6h14.1h1.1h45.1V394h-10.2c-5.4,0-8.2-3.4-8.2-10.3V282.9c4.7-11.8,9.7-21.9,15.2-30.2     c10-15.4,19.5-23.1,28.4-23.1c8.6,0,14.8,3.4,18.7,10.3s5.8,15.8,5.8,26.9v115.3l-0.1,1.7c0,6.9-3.4,10.3-10.3,10.3h-7.8h-17.8     v11.6h17.8h60.3h17.5v-11.6h-17.5h-1.7V393.9z" fill="#000000"/>
			<polygon points="2972.2,405.2 2971.9,405 2971.9,405.4 2973.1,405.4    " fill="#000000"/>
		</g>
		<path d="M3419.2,383.5v-98.8c0-0.1,0.1-0.2,0.1-0.2v-25.7l-0.1-0.1v-36.1l-66.1,2.5v11.6h25.6c6.9,0,10.3,3.4,10.3,10.3v136.5    c0,6.9-3.4,10.3-10.3,10.3h-25.6v11.6h95.7v-11.6h-19.2C3422.6,393.9,3419.2,390.4,3419.2,383.5z" fill="#000000"/>
		<ellipse cx="3399.8" cy="159.1" rx="23.6" ry="22.9" fill="#000000"/>
		<path d="M3612.5,393.9c-6.9,0-10.3-3.4-10.3-10.3v-98.8c0-0.1,0.1-0.2,0.1-0.2v-25.3l0,0l-0.1-17c0,0,2.1-27-53.9-30    c-46.3-2.5-72,4-78.5,21.7c-6.3,17.4-1.3,31.9,3.1,37.7c4.3,5.9,9.7,8.8,16.2,8.8c6.3,0,11.3-1.9,14.8-5.7    c3.5-3.8,5.3-8.5,5.3-14.2c0-5.2-2.3-10.1-6.9-14.7c-3.8-3.4-5.7-6.8-5.7-10.1c0-10.6,8.7-16.4,41.7-14.6    c30,1.7,33.4,26.2,33.7,34.4v30.3c0,0-30.7,4.4-57.7,17.4c-23,11.1-61.1,38.3-46,79c13,35,72,27,87,21.5c11.7-4.3,17-11.4,17-11.4    v-0.5c0,4.6,0,13.7,0,13.7h59.4V394h-19.2V393.9z M3554.5,393.9c-20.2,5.4-49.4-0.3-53-23c-4.2-25.6,15-50.2,30.4-59.9    c13.4-8.4,34.7-14,40.1-15.4V380C3570.8,384.5,3566.8,390.6,3554.5,393.9z" fill="#000000"/>
	</g>
</g>
<g>
	<path d="M1055,643.8h-18.5l-7.4-16.9h-39.3l-7.4,16.9h-18.5l45.5-104L1055,643.8z M1021.7,610l-12.2-28.1L997.3,610H1021.7z" fill="#000000"/>
	<path d="M1171.4,605.6c0,5.5-1,10.6-3.1,15.3c-1.6,3.6-3.6,7-6,9.9c-2.5,3-5.3,5.5-8.4,7.7c-3.2,2.1-6.6,3.7-10.3,4.9   c-3.7,1.1-7.6,1.7-11.6,1.7c-5.5,0-10.6-1-15.4-3.1s-9-4.9-12.5-8.4c-3.6-3.6-6.4-7.7-8.4-12.5c-2.1-4.8-3.1-9.9-3.1-15.4v-61.9   h16.9v61.9c0,3.1,0.6,6,1.8,8.8c1.2,2.7,2.8,5.1,4.9,7.2s4.5,3.7,7.2,4.9c2.7,1.2,5.7,1.8,8.8,1.8c3.1,0,6-0.6,8.8-1.8   c2.7-1.2,5.1-2.8,7.2-4.9s3.7-4.5,4.9-7.2c1.2-2.7,1.8-5.7,1.8-8.8v-61.9h16.9v61.8H1171.4z" fill="#000000"/>
	<path d="M1305.2,629.8l-0.3,0.8c-4.9,4.7-10.5,8.3-16.6,10.8s-12.5,3.8-19.3,3.8c-7.1,0-13.8-1.3-20-4s-11.7-6.3-16.4-11   c-4.7-4.6-8.4-10.1-11.1-16.3c-2.7-6.2-4-12.9-4-20s1.3-13.8,4-20s6.4-11.7,11.1-16.3c4.7-4.6,10.1-8.3,16.4-11   c6.2-2.7,12.9-4,20-4c6.8,0,13.2,1.3,19.3,3.8c6.1,2.5,11.6,6.1,16.6,10.8l-12,11.9c-3.2-3-6.9-5.4-11-7s-8.4-2.5-12.8-2.5   c-4.8,0-9.2,0.9-13.4,2.7c-4.2,1.8-7.8,4.2-10.9,7.3c-3.1,3.1-5.6,6.8-7.3,10.9c-1.8,4.2-2.7,8.6-2.7,13.3c0,4.7,0.9,9.1,2.7,13.3   c1.8,4.2,4.2,7.8,7.3,10.9c3.1,3.1,6.8,5.6,10.9,7.3c4.2,1.8,8.6,2.7,13.4,2.7c3.6,0,7.2-0.5,10.7-1.6s6.7-2.8,9.8-5v-19.1h-20.3   v-16.9h36L1305.2,629.8L1305.2,629.8z" fill="#000000"/>
	<path d="M1450,643.8h-16.9v-52.4l-30.7,39.9l-30.7-39.9v52.4h-16.9v-104l47.6,65.1l47.6-65.1V643.8z" fill="#000000"/>
	<path d="M1565.6,643.8h-62.4V543.7h62.4v16.9h-45.5v24.7h40.3v16.9h-40.3v24.7h45.5V643.8z" fill="#000000"/>
	<path d="M1689.8,648l-60.2-65.3v61.1h-16.9v-104l60.2,65.3v-61.4h16.9V648z" fill="#000000"/>
	<path d="M1805.5,560.6h-25.6v83.2h-17v-83.2h-25.7v-16.9h68.2v16.9H1805.5z" fill="#000000"/>
	<path d="M1915.3,643.8h-62.4V543.7h62.4v16.9h-45.5v24.7h40.3v16.9h-40.3v24.7h45.5V643.8z" fill="#000000"/>
	<path d="M2041.5,593.8c0,6.9-1.3,13.4-3.9,19.5c-2.6,6.1-6.2,11.4-10.7,15.9s-9.9,8.1-15.9,10.7c-6.1,2.6-12.6,3.9-19.5,3.9h-29.1   V543.7h29.1c6.9,0,13.4,1.3,19.5,3.9s11.4,6.2,15.9,10.7c4.6,4.5,8.1,9.9,10.7,15.9C2040.2,580.3,2041.5,586.8,2041.5,593.8z    M2024.6,593.8c0-4.6-0.9-8.9-2.6-12.9c-1.7-4-4.1-7.5-7.1-10.5s-6.5-5.4-10.5-7.1s-8.3-2.6-12.9-2.6h-12.2V627h12.2   c4.6,0,8.9-0.9,12.9-2.6s7.5-4.1,10.5-7.1s5.3-6.5,7.1-10.5C2023.8,602.7,2024.6,598.4,2024.6,593.8z" fill="#000000"/>
	<path d="M2238.2,643.8h-19.5l-20.8-41.6h-12.1v41.6h-16.9V543.7h39.4c4,0,7.8,0.8,11.3,2.3c3.6,1.5,6.7,3.6,9.4,6.3   c2.7,2.7,4.8,5.8,6.3,9.4s2.3,7.3,2.3,11.3c0,3.3-0.5,6.5-1.6,9.5c-1,3-2.5,5.8-4.4,8.3s-4.2,4.6-6.8,6.4s-5.6,3.2-8.8,4   L2238.2,643.8z M2220.7,573c0-1.6-0.3-3.2-1-4.7s-1.5-2.8-2.7-4c-1.1-1.1-2.4-2-4-2.7c-1.5-0.7-3.1-1-4.7-1h-22.5v24.7h22.5   c1.6,0,3.2-0.3,4.7-1s2.8-1.5,4-2.7c1.1-1.1,2-2.4,2.7-3.9C2220.3,576.3,2220.7,574.7,2220.7,573z" fill="#000000"/>
	<path d="M2350,643.8h-62.4V543.7h62.4v16.9h-45.5v24.7h40.3v16.9h-40.3v24.7h45.5V643.8z" fill="#000000"/>
	<path d="M2483.9,643.8h-18.5l-7.4-16.9h-39.3l-7.4,16.9h-18.4l45.5-104L2483.9,643.8z M2450.6,610l-12.2-28.1l-12.2,28.1H2450.6z" fill="#000000"/>
	<path d="M2591.8,643.8h-62.4V543.7h16.9v83.2h45.5V643.8z" fill="#000000"/>
	<path d="M2650.8,643.8h-16.9V543.7h16.9V643.8z" fill="#000000"/>
	<path d="M2766.5,560.6h-25.6v83.2H2724v-83.2h-25.7v-16.9h68.2V560.6z" fill="#000000"/>
	<path d="M2879.5,543.7l-30.8,52.4v47.7h-16.9v-47.7l-30.8-52.4h19.6l19.6,33.4l19.8-33.4H2879.5z" fill="#000000"/>
</g>
</svg>